<?xml version="1.0" encoding="UTF-8"?>
<!DOCTYPE svg PUBLIC "-//W3C//DTD SVG 1.1//EN" "http://www.w3.org/Graphics/SVG/1.1/DTD/svg11.dtd">
<svg xmlns="http://www.w3.org/2000/svg" version="1.1" width="1080px" height="1080px" style="shape-rendering:geometricPrecision; text-rendering:geometricPrecision; image-rendering:optimizeQuality; fill-rule:evenodd; clip-rule:evenodd" xmlns:xlink="http://www.w3.org/1999/xlink">
<g><path style="opacity:0.997" fill="#fefefe" d="M 19.5,250.5 C 366.167,250.5 712.833,250.5 1059.5,250.5C 1059.5,443.167 1059.5,635.833 1059.5,828.5C 712.833,828.5 366.167,828.5 19.5,828.5C 19.5,635.833 19.5,443.167 19.5,250.5 Z"/></g>
<g><path style="opacity:1" fill="#074cfe" d="M 158.5,480.5 C 159.5,483.5 161.5,485.5 164.5,486.5C 164.833,487.5 165.5,488.167 166.5,488.5C 167.5,491.5 169.5,493.5 172.5,494.5C 194.04,515.144 215.04,536.477 235.5,558.5C 177.784,542.197 128.284,555.53 87,598.5C 84.59,601.397 82.4233,604.397 80.5,607.5C 79.5967,609.62 78.2633,609.954 76.5,608.5C 64.8682,597.369 53.3682,586.035 42,574.5C 41.3333,573.5 41.3333,572.5 42,571.5C 76.3227,537.549 110.489,503.716 144.5,470C 145.5,469.333 146.5,469.333 147.5,470C 151.06,473.632 154.727,477.132 158.5,480.5 Z"/></g>
<g><path style="opacity:1" fill="#7493fd" d="M 158.5,480.5 C 160.833,482.167 162.833,484.167 164.5,486.5C 161.5,485.5 159.5,483.5 158.5,480.5 Z"/></g>
<g><path style="opacity:1" fill="#7291fd" d="M 166.5,488.5 C 168.833,490.167 170.833,492.167 172.5,494.5C 169.5,493.5 167.5,491.5 166.5,488.5 Z"/></g>
<g><path style="opacity:1" fill="#3b3b3b" d="M 358.5,498.5 C 350.5,498.5 342.5,498.5 334.5,498.5C 334.448,501.346 333.448,503.68 331.5,505.5C 332.371,502.888 333.037,500.221 333.5,497.5C 342.017,497.174 350.35,497.507 358.5,498.5 Z"/></g>
<g><path style="opacity:1" fill="#070707" d="M 686.5,514.5 C 684.321,513.074 681.821,512.408 679,512.5C 676.456,512.336 674.29,513.003 672.5,514.5C 666.219,519.151 665.886,524.318 671.5,530C 674.748,531.46 678.081,532.626 681.5,533.5C 684.084,535.472 687.084,536.472 690.5,536.5C 697.64,539.794 703.473,544.794 708,551.5C 711.308,572.055 702.808,584.555 682.5,589C 669.416,591.03 657.416,588.364 646.5,581C 645.167,579.667 643.833,578.333 642.5,577C 647,572.5 651.5,568 656,563.5C 663.261,571.8 672.095,574.3 682.5,571C 687.409,567.605 688.742,563.105 686.5,557.5C 684.754,555.748 682.754,554.415 680.5,553.5C 678.478,551.307 675.811,550.307 672.5,550.5C 668.434,548.557 664.101,547.057 659.5,546C 653.811,542.485 649.811,537.652 647.5,531.5C 647.295,525.122 647.628,518.789 648.5,512.5C 659.277,496.951 673.943,492.118 692.5,498C 698.048,500.277 703.381,502.777 708.5,505.5C 705.337,511.047 701.171,516.047 696,520.5C 693.157,517.837 689.991,515.837 686.5,514.5 Z"/></g>
<g><path style="opacity:1" fill="#060606" d="M 358.5,498.5 C 360.895,503.352 362.895,508.352 364.5,513.5C 364.345,516.716 365.345,519.383 367.5,521.5C 370.473,528.726 373.139,536.06 375.5,543.5C 376.387,547.419 377.721,551.085 379.5,554.5C 379.41,557.152 380.076,559.485 381.5,561.5C 384.967,569.235 387.967,577.235 390.5,585.5C 384.25,587.459 377.584,588.126 370.5,587.5C 370.737,586.209 370.404,585.209 369.5,584.5C 369.167,583.167 368.833,581.833 368.5,580.5C 367.184,576.911 366.017,573.244 365,569.5C 364.617,568.944 364.117,568.611 363.5,568.5C 351.452,567.855 339.785,568.522 328.5,570.5C 326.759,572.395 325.759,574.728 325.5,577.5C 324.101,580.699 323.101,584.032 322.5,587.5C 315.416,588.126 308.75,587.459 302.5,585.5C 311.781,558.654 321.448,531.987 331.5,505.5C 333.448,503.68 334.448,501.346 334.5,498.5C 342.5,498.5 350.5,498.5 358.5,498.5 Z"/></g>
<g><path style="opacity:1" fill="#565656" d="M 461.5,587.5 C 461.5,557.833 461.5,528.167 461.5,498.5C 455.833,498.5 450.167,498.5 444.5,498.5C 444.5,528.167 444.5,557.833 444.5,587.5C 443.502,557.338 443.169,527.005 443.5,496.5C 449.833,496.5 456.167,496.5 462.5,496.5C 462.831,527.005 462.498,557.338 461.5,587.5 Z"/></g>
<g><path style="opacity:1" fill="#010101" d="M 461.5,587.5 C 455.833,587.5 450.167,587.5 444.5,587.5C 444.5,557.833 444.5,528.167 444.5,498.5C 450.167,498.5 455.833,498.5 461.5,498.5C 461.5,528.167 461.5,557.833 461.5,587.5 Z"/></g>
<g><path style="opacity:1" fill="#050505" d="M 563.5,498.5 C 574.299,501.637 581.966,508.303 586.5,518.5C 587.292,524.13 587.625,529.797 587.5,535.5C 586.252,539.55 584.586,543.55 582.5,547.5C 579.642,550.856 576.642,554.023 573.5,557C 577.789,567.075 582.456,576.909 587.5,586.5C 581.25,588.459 574.584,589.126 567.5,588.5C 562.974,579.586 558.641,570.586 554.5,561.5C 550.03,560.514 545.363,560.181 540.5,560.5C 540.5,569.5 540.5,578.5 540.5,587.5C 534.5,587.5 528.5,587.5 522.5,587.5C 522.5,571.167 522.5,554.833 522.5,538.5C 523.496,525.344 523.829,512.01 523.5,498.5C 536.833,498.5 550.167,498.5 563.5,498.5 Z"/></g>
<g><path style="opacity:1" fill="#020202" d="M 786.5,524.5 C 786.5,527.833 786.5,531.167 786.5,534.5C 797.5,534.5 808.5,534.5 819.5,534.5C 820.495,522.678 820.828,510.678 820.5,498.5C 826.167,498.5 831.833,498.5 837.5,498.5C 837.5,528.167 837.5,557.833 837.5,587.5C 831.833,587.5 826.167,587.5 820.5,587.5C 820.828,575.655 820.495,563.988 819.5,552.5C 808.5,552.5 797.5,552.5 786.5,552.5C 786.5,564.167 786.5,575.833 786.5,587.5C 780.5,587.5 774.5,587.5 768.5,587.5C 768.5,557.833 768.5,528.167 768.5,498.5C 774.167,498.5 779.833,498.5 785.5,498.5C 785.174,507.349 785.507,516.016 786.5,524.5 Z"/></g>
<g><path style="opacity:1" fill="#686868" d="M 837.5,587.5 C 837.5,557.833 837.5,528.167 837.5,498.5C 831.833,498.5 826.167,498.5 820.5,498.5C 820.828,510.678 820.495,522.678 819.5,534.5C 819.5,534.167 819.5,533.833 819.5,533.5C 819.5,521.5 819.5,509.5 819.5,497.5C 825.833,497.5 832.167,497.5 838.5,497.5C 838.831,527.671 838.498,557.671 837.5,587.5 Z"/></g>
<g><path style="opacity:1" fill="#afb0b3" d="M 912.5,497.5 C 906.31,497.177 900.31,497.51 894.5,498.5C 894.5,527.833 894.5,557.167 894.5,586.5C 894.5,586.833 894.5,587.167 894.5,587.5C 893.502,557.338 893.169,527.005 893.5,496.5C 900.022,496.177 906.355,496.51 912.5,497.5 Z"/></g>
<g><path style="opacity:1" fill="#000000" d="M 894.5,498.5 C 900.167,498.5 905.833,498.5 911.5,498.5C 911.5,527.833 911.5,557.167 911.5,586.5C 905.833,586.5 900.167,586.5 894.5,586.5C 894.5,557.167 894.5,527.833 894.5,498.5 Z"/></g>
<g><path style="opacity:1" fill="#282828" d="M 894.5,498.5 C 900.31,497.51 906.31,497.177 912.5,497.5C 912.5,527.5 912.5,557.5 912.5,587.5C 906.5,587.5 900.5,587.5 894.5,587.5C 894.5,587.167 894.5,586.833 894.5,586.5C 900.167,586.5 905.833,586.5 911.5,586.5C 911.5,557.167 911.5,527.833 911.5,498.5C 905.833,498.5 900.167,498.5 894.5,498.5 Z"/></g>
<g><path style="opacity:1" fill="#727273" d="M 1012.5,498.5 C 998.833,498.5 985.167,498.5 971.5,498.5C 971.5,528.167 971.5,557.833 971.5,587.5C 977.167,587.5 982.833,587.5 988.5,587.5C 988.173,578.318 988.507,569.318 989.5,560.5C 989.5,569.5 989.5,578.5 989.5,587.5C 983.355,588.49 977.022,588.823 970.5,588.5C 970.5,558.167 970.5,527.833 970.5,497.5C 984.677,497.171 998.677,497.504 1012.5,498.5 Z"/></g>
<g><path style="opacity:1" fill="#040404" d="M 1012.5,498.5 C 1014.51,499.924 1016.85,500.59 1019.5,500.5C 1025.16,504.161 1029.83,508.827 1033.5,514.5C 1035.26,522.018 1035.92,529.685 1035.5,537.5C 1035.31,539.564 1034.81,541.564 1034,543.5C 1032.17,545.156 1030.84,547.156 1030,549.5C 1026.98,551.698 1024.14,554.031 1021.5,556.5C 1018.05,557.083 1015.05,558.416 1012.5,560.5C 1011.17,560.5 1009.83,560.5 1008.5,560.5C 1002.17,560.5 995.833,560.5 989.5,560.5C 988.507,569.318 988.173,578.318 988.5,587.5C 982.833,587.5 977.167,587.5 971.5,587.5C 971.5,557.833 971.5,528.167 971.5,498.5C 985.167,498.5 998.833,498.5 1012.5,498.5 Z"/></g>
<g><path style="opacity:1" fill="#8a8a8a" d="M 1012.5,498.5 C 1015.15,498.41 1017.49,499.076 1019.5,500.5C 1016.85,500.59 1014.51,499.924 1012.5,498.5 Z"/></g>
<g><path style="opacity:1" fill="#b1c2fa" d="M 152.5,513.5 C 147.627,511.933 142.961,512.266 138.5,514.5C 141.249,510.829 144.916,509.663 149.5,511C 150.942,511.377 151.942,512.21 152.5,513.5 Z"/></g>
<g><path style="opacity:1" fill="#f9fafe" d="M 152.5,513.5 C 155.403,515.305 156.736,517.971 156.5,521.5C 156.64,525.557 154.974,528.557 151.5,530.5C 146.899,530.945 142.565,530.278 138.5,528.5C 134.5,523.833 134.5,519.167 138.5,514.5C 142.961,512.266 147.627,511.933 152.5,513.5 Z"/></g>
<g><path style="opacity:1" fill="#9c9c9c" d="M 686.5,514.5 C 681.833,514.5 677.167,514.5 672.5,514.5C 674.29,513.003 676.456,512.336 679,512.5C 681.821,512.408 684.321,513.074 686.5,514.5 Z"/></g>
<g><path style="opacity:1" fill="#5a5a5b" d="M 364.5,513.5 C 365.871,515.936 366.871,518.603 367.5,521.5C 365.345,519.383 364.345,516.716 364.5,513.5 Z"/></g>
<g><path style="opacity:1" fill="#626262" d="M 563.5,498.5 C 550.167,498.5 536.833,498.5 523.5,498.5C 523.829,512.01 523.496,525.344 522.5,538.5C 522.5,524.833 522.5,511.167 522.5,497.5C 536.344,497.171 550.01,497.504 563.5,498.5 Z"/></g>
<g><path style="opacity:1" fill="#c3c3c3" d="M 560.5,516.5 C 554.167,516.5 547.833,516.5 541.5,516.5C 541.5,524.833 541.5,533.167 541.5,541.5C 548.167,541.5 554.833,541.5 561.5,541.5C 554.687,542.491 547.687,542.825 540.5,542.5C 540.5,533.5 540.5,524.5 540.5,515.5C 547.354,515.176 554.021,515.509 560.5,516.5 Z"/></g>
<g><path style="opacity:1" fill="#fcfcfc" d="M 560.5,516.5 C 566.541,518.209 569.541,522.209 569.5,528.5C 570.09,534.897 567.424,539.23 561.5,541.5C 554.833,541.5 548.167,541.5 541.5,541.5C 541.5,533.167 541.5,524.833 541.5,516.5C 547.833,516.5 554.167,516.5 560.5,516.5 Z"/></g>
<g><path style="opacity:1" fill="#c4c4c4" d="M 1008.5,516.5 C 1002.5,516.5 996.5,516.5 990.5,516.5C 990.5,524.833 990.5,533.167 990.5,541.5C 996.833,541.5 1003.17,541.5 1009.5,541.5C 1003.02,542.491 996.354,542.824 989.5,542.5C 989.5,533.5 989.5,524.5 989.5,515.5C 996.022,515.177 1002.36,515.51 1008.5,516.5 Z"/></g>
<g><path style="opacity:1" fill="#fdfdfd" d="M 1008.5,516.5 C 1012.13,516.701 1014.8,518.368 1016.5,521.5C 1017.38,526.103 1017.72,530.77 1017.5,535.5C 1015.68,538.655 1013.01,540.655 1009.5,541.5C 1003.17,541.5 996.833,541.5 990.5,541.5C 990.5,533.167 990.5,524.833 990.5,516.5C 996.5,516.5 1002.5,516.5 1008.5,516.5 Z"/></g>
<g><path style="opacity:1" fill="#636363" d="M 786.5,497.5 C 786.5,506.5 786.5,515.5 786.5,524.5C 785.507,516.016 785.174,507.349 785.5,498.5C 779.833,498.5 774.167,498.5 768.5,498.5C 768.5,528.167 768.5,557.833 768.5,587.5C 767.502,557.671 767.169,527.671 767.5,497.5C 773.833,497.5 780.167,497.5 786.5,497.5 Z"/></g>
<g><path style="opacity:1" fill="#595959" d="M 648.5,512.5 C 647.628,518.789 647.295,525.122 647.5,531.5C 646.348,526.015 646.182,520.349 647,514.5C 647.278,513.584 647.778,512.918 648.5,512.5 Z"/></g>
<g><path style="opacity:1" fill="#f2f2f2" d="M 356.5,546.5 C 356.5,548.167 356.5,549.833 356.5,551.5C 349.5,551.5 342.5,551.5 335.5,551.5C 337.012,545.784 338.679,540.117 340.5,534.5C 342.245,532.967 343.245,530.967 343.5,528.5C 344.022,525.747 344.856,523.08 346,520.5C 346.333,520.833 346.667,521.167 347,521.5C 350.33,529.86 353.497,538.193 356.5,546.5 Z"/></g>
<g><path style="opacity:1" fill="#303030" d="M 1033.5,514.5 C 1034.79,515.842 1035.63,517.509 1036,519.5C 1038.05,525.72 1037.88,531.72 1035.5,537.5C 1035.92,529.685 1035.26,522.018 1033.5,514.5 Z"/></g>
<g><path style="opacity:1" fill="#909090" d="M 1016.5,521.5 C 1018.65,523.607 1019.65,526.274 1019.5,529.5C 1019.64,531.883 1018.97,533.883 1017.5,535.5C 1017.72,530.77 1017.38,526.103 1016.5,521.5 Z"/></g>
<g><path style="opacity:1" fill="#7d7d7e" d="M 586.5,518.5 C 588.019,521.526 588.685,524.859 588.5,528.5C 588.497,531.025 588.163,533.359 587.5,535.5C 587.625,529.797 587.292,524.13 586.5,518.5 Z"/></g>
<g><path style="opacity:1" fill="#c5d1fb" d="M 138.5,528.5 C 142.565,530.278 146.899,530.945 151.5,530.5C 146.583,533.625 142.249,532.958 138.5,528.5 Z"/></g>
<g><path style="opacity:1" fill="#7e7e7e" d="M 343.5,528.5 C 343.245,530.967 342.245,532.967 340.5,534.5C 340.755,532.033 341.755,530.033 343.5,528.5 Z"/></g>
<g><path style="opacity:1" fill="#a1a1a1" d="M 786.5,497.5 C 787.495,509.322 787.828,521.322 787.5,533.5C 798.167,533.5 808.833,533.5 819.5,533.5C 819.5,533.833 819.5,534.167 819.5,534.5C 808.5,534.5 797.5,534.5 786.5,534.5C 786.5,531.167 786.5,527.833 786.5,524.5C 786.5,515.5 786.5,506.5 786.5,497.5 Z"/></g>
<g><path style="opacity:1" fill="#919191" d="M 681.5,533.5 C 684.855,533.69 687.855,534.69 690.5,536.5C 687.084,536.472 684.084,535.472 681.5,533.5 Z"/></g>
<g><path style="opacity:1" fill="#b1b1b1" d="M 375.5,543.5 C 376.586,543.62 377.253,544.287 377.5,545.5C 378.328,548.479 378.995,551.479 379.5,554.5C 377.721,551.085 376.387,547.419 375.5,543.5 Z"/></g>
<g><path style="opacity:1" fill="#6b6b6b" d="M 672.5,550.5 C 675.811,550.307 678.478,551.307 680.5,553.5C 677.603,552.871 674.936,551.871 672.5,550.5 Z"/></g>
<g><path style="opacity:1" fill="#656565" d="M 356.5,546.5 C 357.738,548.214 358.405,550.214 358.5,552.5C 350.648,552.825 342.982,552.492 335.5,551.5C 342.5,551.5 349.5,551.5 356.5,551.5C 356.5,549.833 356.5,548.167 356.5,546.5 Z"/></g>
<g><path style="opacity:1" fill="#030382" d="M 235.5,558.5 C 240.762,562.358 245.595,566.691 250,571.5C 250.667,572.833 250.667,574.167 250,575.5C 238.512,587.541 226.512,598.874 214,609.5C 203.981,600.812 193.147,593.312 181.5,587C 169.476,582.936 157.143,580.436 144.5,579.5C 139.624,579.69 134.957,580.357 130.5,581.5C 128.473,581.338 126.473,581.505 124.5,582C 123.944,582.383 123.611,582.883 123.5,583.5C 116.803,584.566 110.469,586.733 104.5,590C 96.9963,595.254 89.663,600.754 82.5,606.5C 81.8333,606.833 81.1667,607.167 80.5,607.5C 82.4233,604.397 84.59,601.397 87,598.5C 128.284,555.53 177.784,542.197 235.5,558.5 Z"/></g>
<g><path style="opacity:1" fill="#686868" d="M 819.5,552.5 C 820.495,563.988 820.828,575.655 820.5,587.5C 826.167,587.5 831.833,587.5 837.5,587.5C 831.5,588.833 825.5,588.833 819.5,587.5C 819.5,575.833 819.5,564.167 819.5,552.5 Z"/></g>
<g><path style="opacity:1" fill="#5d5d5d" d="M 379.5,554.5 C 380.924,556.515 381.59,558.848 381.5,561.5C 380.076,559.485 379.41,557.152 379.5,554.5 Z"/></g>
<g><path style="opacity:1" fill="#848484" d="M 1021.5,556.5 C 1018.95,558.584 1015.95,559.917 1012.5,560.5C 1015.05,558.416 1018.05,557.083 1021.5,556.5 Z"/></g>
<g><path style="opacity:1" fill="#b9b9b9" d="M 554.5,561.5 C 550.167,561.5 545.833,561.5 541.5,561.5C 541.826,570.349 541.493,579.016 540.5,587.5C 540.5,578.5 540.5,569.5 540.5,560.5C 545.363,560.181 550.03,560.514 554.5,561.5 Z"/></g>
<g><path style="opacity:1" fill="#b6b6b6" d="M 989.5,560.5 C 995.833,560.5 1002.17,560.5 1008.5,560.5C 1002.69,561.49 996.69,561.823 990.5,561.5C 990.826,570.349 990.493,579.016 989.5,587.5C 989.5,578.5 989.5,569.5 989.5,560.5 Z"/></g>
<g><path style="opacity:1" fill="#bebebe" d="M 819.5,552.5 C 819.5,564.167 819.5,575.833 819.5,587.5C 818.505,576.346 818.172,565.012 818.5,553.5C 808.167,553.5 797.833,553.5 787.5,553.5C 787.5,565.167 787.5,576.833 787.5,588.5C 780.978,588.823 774.645,588.49 768.5,587.5C 774.5,587.5 780.5,587.5 786.5,587.5C 786.5,575.833 786.5,564.167 786.5,552.5C 797.5,552.5 808.5,552.5 819.5,552.5 Z"/></g>
<g><path style="opacity:1" fill="#888889" d="M 328.5,570.5 C 328.241,573.272 327.241,575.605 325.5,577.5C 325.759,574.728 326.759,572.395 328.5,570.5 Z"/></g>
<g><path style="opacity:1" fill="#aeaeaf" d="M 363.5,568.5 C 364.117,568.611 364.617,568.944 365,569.5C 366.017,573.244 367.184,576.911 368.5,580.5C 367.25,580.423 366.417,579.756 366,578.5C 365.467,575.071 364.633,571.738 363.5,568.5 Z"/></g>
<g><path style="opacity:1" fill="#6e78cb" d="M 130.5,581.5 C 128.343,582.407 126.01,583.073 123.5,583.5C 123.611,582.883 123.944,582.383 124.5,582C 126.473,581.505 128.473,581.338 130.5,581.5 Z"/></g>
<g><path style="opacity:1" fill="#a4a4a4" d="M 302.5,585.5 C 308.75,587.459 315.416,588.126 322.5,587.5C 315.687,588.491 308.687,588.825 301.5,588.5C 301.263,587.209 301.596,586.209 302.5,585.5 Z"/></g>
<g><path style="opacity:1" fill="#a6a6a6" d="M 369.5,584.5 C 370.404,585.209 370.737,586.209 370.5,587.5C 377.584,588.126 384.25,587.459 390.5,585.5C 391.404,586.209 391.737,587.209 391.5,588.5C 384.167,588.5 376.833,588.5 369.5,588.5C 369.5,587.167 369.5,585.833 369.5,584.5 Z"/></g>
<g><path style="opacity:1" fill="#a3a3a3" d="M 587.5,586.5 C 588.404,587.209 588.737,588.209 588.5,589.5C 581.313,589.825 574.313,589.491 567.5,588.5C 574.584,589.126 581.25,588.459 587.5,586.5 Z"/></g>
<g><path style="opacity:1" fill="#8d9fea" d="M 82.5,606.5 C 81.2869,610.629 79.2869,611.296 76.5,608.5C 78.2633,609.954 79.5967,609.62 80.5,607.5C 81.1667,607.167 81.8333,606.833 82.5,606.5 Z"/></g>
</svg>
