<?xml version="1.0" encoding="UTF-8"?>
<!DOCTYPE svg PUBLIC "-//W3C//DTD SVG 1.1//EN" "http://www.w3.org/Graphics/SVG/1.1/DTD/svg11.dtd">
<svg xmlns="http://www.w3.org/2000/svg" version="1.1" width="3840px" height="2160px" style="shape-rendering:geometricPrecision; text-rendering:geometricPrecision; image-rendering:optimizeQuality; fill-rule:evenodd; clip-rule:evenodd" xmlns:xlink="http://www.w3.org/1999/xlink">
<g><path style="opacity:1" fill="#fe4f18" d="M 9.5,670.5 C 138.833,670.5 268.167,670.5 397.5,670.5C 397.5,800.167 397.5,929.833 397.5,1059.5C 268.167,1059.5 138.833,1059.5 9.5,1059.5C 9.5,929.833 9.5,800.167 9.5,670.5 Z"/></g>
<g><path style="opacity:1" fill="#5aba01" d="M 437.5,670.5 C 567.167,670.5 696.833,670.5 826.5,670.5C 826.667,799.834 826.5,929.167 826,1058.5C 696.57,1059.5 567.07,1059.83 437.5,1059.5C 437.5,929.833 437.5,800.167 437.5,670.5 Z"/></g>
<g><path style="opacity:1" fill="#737473" d="M 3542.5,972.5 C 3583.66,973.499 3625,973.832 3666.5,973.5C 3666.5,946.833 3666.5,920.167 3666.5,893.5C 3693.98,884.563 3721.64,876.23 3749.5,868.5C 3749.33,903.502 3749.5,938.502 3750,973.5C 3777.43,972.505 3804.93,972.172 3832.5,972.5C 3832.5,995.167 3832.5,1017.83 3832.5,1040.5C 3804.83,1040.5 3777.17,1040.5 3749.5,1040.5C 3749.33,1100.5 3749.5,1160.5 3750,1220.5C 3751.27,1248.1 3765.6,1262.77 3793,1264.5C 3800.74,1263.95 3808.57,1262.45 3816.5,1260C 3822.2,1258.07 3827.36,1255.24 3832,1251.5C 3832.67,1274.5 3832.67,1297.5 3832,1320.5C 3825.61,1324.14 3818.78,1326.64 3811.5,1328C 3785.43,1334.74 3759.43,1335.07 3733.5,1329C 3697.21,1318.04 3675.71,1293.87 3669,1256.5C 3667.34,1247.24 3666.34,1237.9 3666,1228.5C 3665.5,1165.83 3665.33,1103.17 3665.5,1040.5C 3624.5,1040.5 3583.5,1040.5 3542.5,1040.5C 3542.5,1135.17 3542.5,1229.83 3542.5,1324.5C 3514.5,1324.5 3486.5,1324.5 3458.5,1324.5C 3458.5,1229.83 3458.5,1135.17 3458.5,1040.5C 3439.5,1040.5 3420.5,1040.5 3401.5,1040.5C 3401.5,1018.17 3401.5,995.833 3401.5,973.5C 3420.83,973.5 3440.17,973.5 3459.5,973.5C 3459.5,953.833 3459.5,934.167 3459.5,914.5C 3462.67,863.304 3487.67,827.471 3534.5,807C 3567.61,795.326 3600.61,794.66 3633.5,805C 3634.66,828.427 3634.83,851.927 3634,875.5C 3633.67,875.833 3633.33,876.167 3633,876.5C 3610.84,864.553 3588.34,863.72 3565.5,874C 3553.03,883.759 3545.87,896.592 3544,912.5C 3542.65,932.473 3542.15,952.473 3542.5,972.5 Z"/></g>
<g><path style="opacity:1" fill="#737473" d="M 1713.5,823.5 C 1743.04,821.502 1762.21,834.502 1771,862.5C 1774.17,890.663 1762.34,909.163 1735.5,918C 1706.07,924.034 1685.23,913.534 1673,886.5C 1667.4,853.014 1680.9,832.014 1713.5,823.5 Z"/></g>
<g><path style="opacity:1" fill="#737473" d="M 1070.5,833.5 C 1110.84,833.166 1151,833.499 1191,834.5C 1232.8,940.246 1274.8,1045.91 1317,1151.5C 1323.67,1169.34 1329.84,1187.34 1335.5,1205.5C 1345.04,1178.73 1354.87,1152.06 1365,1125.5C 1404.94,1028.61 1444.61,931.614 1484,834.5C 1522.6,833.564 1561.26,833.564 1600,834.5C 1600.67,997.5 1600.67,1160.5 1600,1323.5C 1571.57,1324.66 1543.07,1324.83 1514.5,1324C 1515.18,1221.69 1515.18,1118.36 1514.5,1014C 1516.04,984.562 1517.21,955.062 1518,925.5C 1515.16,937.205 1512.16,948.871 1509,960.5C 1460.24,1081.85 1411.07,1203.02 1361.5,1324C 1342.82,1324.83 1324.16,1324.67 1305.5,1323.5C 1257,1205.83 1208.5,1088.17 1160,970.5C 1155.2,955.624 1150.86,940.624 1147,925.5C 1147.76,939.133 1148.42,952.8 1149,966.5C 1149.5,1085.83 1149.67,1205.17 1149.5,1324.5C 1122.83,1324.67 1096.16,1324.5 1069.5,1324C 1069.9,1160.9 1070.24,997.396 1070.5,833.5 Z"/></g>
<g><path style="opacity:0.435" fill="#727f65" d="M 3666.5,893.5 C 3666.5,920.167 3666.5,946.833 3666.5,973.5C 3625,973.832 3583.66,973.499 3542.5,972.5C 3583.5,972.5 3624.5,972.5 3665.5,972.5C 3665.17,945.995 3665.5,919.661 3666.5,893.5 Z"/></g>
<g><path style="opacity:0.435" fill="#727f65" d="M 3459.5,914.5 C 3459.5,934.167 3459.5,953.833 3459.5,973.5C 3440.17,973.5 3420.83,973.5 3401.5,973.5C 3401.5,995.833 3401.5,1018.17 3401.5,1040.5C 3400.5,1018.01 3400.17,995.339 3400.5,972.5C 3419.83,972.5 3439.17,972.5 3458.5,972.5C 3458.17,952.993 3458.5,933.659 3459.5,914.5 Z"/></g>
<g><path style="opacity:1" fill="#737473" d="M 2091.5,1234.5 C 2092.5,1259.33 2092.83,1284.33 2092.5,1309.5C 2064.81,1324.51 2035.14,1332.51 2003.5,1333.5C 1996.15,1333.03 1988.65,1333.03 1981,1333.5C 1937.75,1331.15 1900.25,1315.48 1868.5,1286.5C 1843.2,1260.58 1827.37,1229.58 1821,1193.5C 1812.57,1141.41 1821.24,1092.08 1847,1045.5C 1873.74,1004.52 1911.24,979.02 1959.5,969C 1995.06,962.216 2030.4,963.216 2065.5,972C 2074.84,974.614 2083.84,978.114 2092.5,982.5C 2093.67,1009.49 2093.83,1036.49 2093,1063.5C 2058.68,1036.29 2020.18,1027.79 1977.5,1038C 1940.34,1051.16 1917.18,1077 1908,1115.5C 1901.73,1146.1 1903.73,1176.1 1914,1205.5C 1929.01,1239.1 1954.84,1258.27 1991.5,1263C 2014.92,1265.82 2037.92,1262.16 2060.5,1252C 2071.51,1247.11 2081.84,1241.28 2091.5,1234.5 Z"/></g>
<g><path style="opacity:1" fill="#737473" d="M 2530.5,964.5 C 2558.33,962.783 2585.66,965.616 2612.5,973C 2672.64,993.821 2708.47,1035.65 2720,1098.5C 2727.03,1137.98 2725.03,1176.98 2714,1215.5C 2692.87,1277.29 2650.37,1315.13 2586.5,1329C 2574.87,1330.98 2563.2,1332.48 2551.5,1333.5C 2543.96,1333.41 2536.46,1333.41 2529,1333.5C 2481.71,1331.86 2441.38,1314.53 2408,1281.5C 2381.46,1250.91 2366.79,1215.25 2364,1174.5C 2360.2,1134.26 2366.2,1095.59 2382,1058.5C 2407.83,1008.31 2448.66,978.141 2504.5,968C 2513.29,966.652 2521.96,965.486 2530.5,964.5 Z M 2533.5,1033.5 C 2587.4,1030.21 2620.9,1054.88 2634,1107.5C 2638.65,1135.16 2638.65,1162.83 2634,1190.5C 2624.42,1237.41 2595.76,1262.08 2548,1264.5C 2498.84,1264.51 2467.5,1240.51 2454,1192.5C 2448,1163.84 2448,1135.17 2454,1106.5C 2463.89,1063.77 2490.39,1039.44 2533.5,1033.5 Z"/></g>
<g><path style="opacity:1" fill="#737473" d="M 2977.5,979.5 C 2977.83,1005.01 2977.5,1030.34 2976.5,1055.5C 2947.3,1036.37 2915.3,1028.53 2880.5,1032C 2848.85,1040.13 2840.02,1058.96 2854,1088.5C 2859.2,1093.85 2865.03,1098.35 2871.5,1102C 2892.83,1111.67 2914.17,1121.33 2935.5,1131C 2989.69,1159.2 3007.86,1202.7 2990,1261.5C 2976.43,1291.73 2953.93,1312.23 2922.5,1323C 2869.71,1339.15 2816.88,1335.98 2764,1313.5C 2763.33,1286.5 2763.33,1259.5 2764,1232.5C 2799.23,1258.76 2838.4,1269.59 2881.5,1265C 2909.1,1258.62 2918.6,1242.12 2910,1215.5C 2907.21,1210.38 2903.38,1206.21 2898.5,1203C 2889.32,1196.91 2879.65,1191.57 2869.5,1187C 2847.34,1178.25 2826.01,1167.92 2805.5,1156C 2772.91,1132.64 2759.08,1100.8 2764,1060.5C 2767.65,1032.7 2780.48,1010.2 2802.5,993C 2830.82,972.829 2862.49,963.329 2897.5,964.5C 2925.13,964.627 2951.8,969.627 2977.5,979.5 Z"/></g>
<g><path style="opacity:1" fill="#737473" d="M 3199.5,964.5 C 3227.33,962.783 3254.66,965.616 3281.5,973C 3341.19,993.704 3377.02,1035.2 3389,1097.5C 3397.74,1144.46 3393.4,1190.13 3376,1234.5C 3353.2,1282.65 3316.03,1313.48 3264.5,1327C 3236.88,1333.36 3210.71,1334.86 3186,1331.5C 3125.89,1326.78 3081.22,1298.12 3052,1245.5C 3035.53,1209.25 3029.2,1171.25 3033,1131.5C 3035.91,1078.85 3057.08,1035.35 3096.5,1001C 3127.37,978.99 3161.7,966.823 3199.5,964.5 Z M 3202.5,1033.5 C 3229.87,1030.92 3254.2,1038.09 3275.5,1055C 3294.19,1075.03 3304.36,1098.86 3306,1126.5C 3308.75,1154.4 3306.08,1181.74 3298,1208.5C 3283.87,1245.42 3256.87,1264.09 3217,1264.5C 3163.33,1263.55 3131.33,1236.22 3121,1182.5C 3116.16,1152.34 3118.16,1122.68 3127,1093.5C 3139.98,1058.01 3165.14,1038.01 3202.5,1033.5 Z"/></g>
<g><path style="opacity:1" fill="#737473" d="M 2155.5,1324.5 C 2155.5,1207.5 2155.5,1090.5 2155.5,973.5C 2182.83,973.5 2210.17,973.5 2237.5,973.5C 2237.33,993.503 2237.5,1013.5 2238,1033.5C 2260.88,977.228 2301.21,956.895 2359,972.5C 2359.83,1000.17 2359.67,1027.84 2358.5,1055.5C 2335.58,1041.87 2311.58,1039.04 2286.5,1047C 2266.61,1056.89 2253.11,1072.39 2246,1093.5C 2241.12,1108.47 2238.28,1123.81 2237.5,1139.5C 2237.51,1200.99 2237.51,1262.66 2237.5,1324.5C 2210.17,1324.5 2182.83,1324.5 2155.5,1324.5 Z"/></g>
<g><path style="opacity:0.435" fill="#727f65" d="M 1761.5,973.5 C 1734.17,973.5 1706.83,973.5 1679.5,973.5C 1679.5,1090.5 1679.5,1207.5 1679.5,1324.5C 1678.5,1207.33 1678.17,1090 1678.5,972.5C 1706.34,972.169 1734.01,972.502 1761.5,973.5 Z"/></g>
<g><path style="opacity:0.435" fill="#727f65" d="M 2237.5,973.5 C 2210.17,973.5 2182.83,973.5 2155.5,973.5C 2155.5,1090.5 2155.5,1207.5 2155.5,1324.5C 2154.5,1207.33 2154.17,1090 2154.5,972.5C 2182.34,972.169 2210.01,972.502 2237.5,973.5 Z"/></g>
<g><path style="opacity:1" fill="#737473" d="M 1761.5,973.5 C 1762.67,1090 1762.83,1206.67 1762,1323.5C 1734.57,1324.5 1707.07,1324.83 1679.5,1324.5C 1679.5,1207.5 1679.5,1090.5 1679.5,973.5C 1706.83,973.5 1734.17,973.5 1761.5,973.5 Z"/></g>
<g><path style="opacity:0.435" fill="#727f65" d="M 2977.5,979.5 C 2978.83,1005 2978.83,1030.67 2977.5,1056.5C 2976.89,1056.38 2976.56,1056.04 2976.5,1055.5C 2977.5,1030.34 2977.83,1005.01 2977.5,979.5 Z"/></g>
<g><path style="opacity:1" fill="#01a4f1" d="M 9.5,1099.5 C 138.833,1099.5 268.167,1099.5 397.5,1099.5C 397.5,1229.17 397.5,1358.83 397.5,1488.5C 268.167,1488.5 138.833,1488.5 9.5,1488.5C 9.5,1358.83 9.5,1229.17 9.5,1099.5 Z"/></g>
<g><path style="opacity:1" fill="#feb901" d="M 437.5,1099.5 C 566.834,1099.33 696.167,1099.5 825.5,1100C 826.166,1164.6 826.499,1229.26 826.5,1294C 826.499,1358.74 826.166,1423.4 825.5,1488C 696.167,1488.5 566.834,1488.67 437.5,1488.5C 437.5,1358.83 437.5,1229.17 437.5,1099.5 Z"/></g>
<g><path style="opacity:0.435" fill="#727f65" d="M 2091.5,1234.5 C 2091.56,1233.96 2091.89,1233.62 2092.5,1233.5C 2093.83,1259 2093.83,1284.33 2092.5,1309.5C 2092.83,1284.33 2092.5,1259.33 2091.5,1234.5 Z"/></g>
<g><path style="opacity:0.435" fill="#727f65" d="M 1868.5,1286.5 C 1867.83,1287.17 1867.83,1287.17 1868.5,1286.5 Z"/></g>
</svg>
