<?xml version="1.0" encoding="UTF-8"?>
<!DOCTYPE svg PUBLIC "-//W3C//DTD SVG 1.1//EN" "http://www.w3.org/Graphics/SVG/1.1/DTD/svg11.dtd">
<svg xmlns="http://www.w3.org/2000/svg" version="1.1" width="728px" height="400px" style="shape-rendering:geometricPrecision; text-rendering:geometricPrecision; image-rendering:optimizeQuality; fill-rule:evenodd; clip-rule:evenodd" xmlns:xlink="http://www.w3.org/1999/xlink">
<g><path style="opacity:0.013" fill="#32cbfe" d="M 669.5,130.5 C 668.127,130.657 666.793,130.49 665.5,130C 667.066,129.235 668.399,129.402 669.5,130.5 Z"/></g>
<g><path style="opacity:0.004" fill="#33ccfe" d="M 669.5,130.5 C 670.167,130.5 670.5,130.833 670.5,131.5C 670.167,131.167 669.833,130.833 669.5,130.5 Z"/></g>
<g><path style="opacity:0.966" fill="#32cbfe" d="M 669.5,131.5 C 669.489,133.017 668.823,134.184 667.5,135C 671.207,134.351 674.873,134.518 678.5,135.5C 678.5,136.5 678.5,137.5 678.5,138.5C 676.262,140.116 673.929,141.449 671.5,142.5C 666.213,143.961 666.547,144.628 672.5,144.5C 674.302,145.458 676.302,146.125 678.5,146.5C 679.899,147.89 681.566,148.89 683.5,149.5C 685.46,151.156 687.46,152.823 689.5,154.5C 690.833,156.5 692.5,158.167 694.5,159.5C 695.026,161.23 696.026,162.564 697.5,163.5C 699.186,166.872 700.853,170.205 702.5,173.5C 703.092,176.127 703.425,178.794 703.5,181.5C 711.59,183.027 719.59,182.694 727.5,180.5C 727.5,181.167 727.5,181.833 727.5,182.5C 726.833,182.5 726.5,182.833 726.5,183.5C 722.005,188.414 716.338,191.248 709.5,192C 715.379,193.41 721.379,193.91 727.5,193.5C 727.5,194.167 727.5,194.833 727.5,195.5C 726.167,196.167 725.167,197.167 724.5,198.5C 722.566,199.11 720.899,200.11 719.5,201.5C 714.527,202.581 709.527,203.581 704.5,204.5C 702.829,209.179 701.163,213.846 699.5,218.5C 698.326,219.514 697.66,220.847 697.5,222.5C 694.601,225.952 691.934,229.618 689.5,233.5C 683.772,239.233 677.772,244.567 671.5,249.5C 669.77,250.026 668.436,251.026 667.5,252.5C 665.847,252.66 664.514,253.326 663.5,254.5C 661.181,254.992 659.181,255.992 657.5,257.5C 655.181,257.992 653.181,258.992 651.5,260.5C 649.214,260.595 647.214,261.262 645.5,262.5C 625.752,267.886 605.752,268.886 585.5,265.5C 582.381,264.13 579.048,263.13 575.5,262.5C 574.07,261.463 572.403,260.796 570.5,260.5C 568.491,258.935 566.157,257.935 563.5,257.5C 562.341,255.75 560.674,254.75 558.5,254.5C 557.71,253.599 556.71,252.932 555.5,252.5C 552.019,249.591 548.352,246.925 544.5,244.5C 543.833,243.167 542.833,242.167 541.5,241.5C 540.833,240.167 539.833,239.167 538.5,238.5C 536.049,234.876 533.383,231.376 530.5,228C 532.066,227.7 533.399,228.2 534.5,229.5C 535.436,230.974 536.77,231.974 538.5,232.5C 541.235,235.201 544.569,236.868 548.5,237.5C 560.833,242.833 573.167,242.833 585.5,237.5C 587.153,237.34 588.486,236.674 589.5,235.5C 594.473,233.702 598.806,230.869 602.5,227C 599.456,226.637 596.456,226.137 593.5,225.5C 592.136,223.809 590.803,222.142 589.5,220.5C 589.5,218.833 589.5,217.167 589.5,215.5C 590.401,214.71 591.068,213.71 591.5,212.5C 592.473,212.013 593.473,211.513 594.5,211C 591.793,210.605 589.127,210.105 586.5,209.5C 582.609,207.627 578.942,205.293 575.5,202.5C 575.573,200.973 574.906,199.973 573.5,199.5C 573.5,198.5 573.5,197.5 573.5,196.5C 574.5,196.167 575.167,195.5 575.5,194.5C 578.054,193.394 580.721,192.561 583.5,192C 580.022,190.76 576.689,189.26 573.5,187.5C 571.833,185.167 569.833,183.167 567.5,181.5C 567.34,179.847 566.674,178.514 565.5,177.5C 564.862,175.54 564.862,173.707 565.5,172C 568.529,171.461 571.529,170.794 574.5,170C 572.612,168.606 570.612,167.44 568.5,166.5C 567.833,165.167 566.833,164.167 565.5,163.5C 562.722,159.485 560.722,155.152 559.5,150.5C 558.872,146.509 560.205,145.176 563.5,146.5C 565.936,147.871 568.603,148.871 571.5,149.5C 573.89,151.02 576.557,152.02 579.5,152.5C 582.74,154.951 586.407,156.618 590.5,157.5C 592.509,159.065 594.843,160.065 597.5,160.5C 600.515,162.674 603.849,164.341 607.5,165.5C 608.965,166.737 610.632,167.737 612.5,168.5C 613.899,169.89 615.566,170.89 617.5,171.5C 617.833,172.5 618.5,173.167 619.5,173.5C 621.127,175.63 622.96,177.63 625,179.5C 626.188,178.437 626.688,177.103 626.5,175.5C 628.065,173.491 629.065,171.157 629.5,168.5C 631.951,165.26 633.618,161.593 634.5,157.5C 636.25,156.341 637.25,154.674 637.5,152.5C 640.399,149.048 643.066,145.382 645.5,141.5C 646.833,140.833 647.833,139.833 648.5,138.5C 649.5,138.167 650.167,137.5 650.5,136.5C 652.698,134.902 655.031,133.569 657.5,132.5C 656.31,135.906 656.977,136.239 659.5,133.5C 662.698,132.213 666.031,131.547 669.5,131.5 Z M 657.5,132.5 C 658.167,132.833 658.833,133.167 659.5,133.5C 656.977,136.239 656.31,135.906 657.5,132.5 Z"/></g>
<g><path style="opacity:0.008" fill="#32cbfe" d="M 670.5,131.5 C 672.746,132.21 675.08,132.71 677.5,133C 676.333,133.167 675.167,133.333 674,133.5C 672.319,133.392 671.152,132.725 670.5,131.5 Z"/></g>
<g><path style="opacity:0.004" fill="#33ccff" d="M 678.5,134.5 C 679.833,135.167 679.833,135.167 678.5,134.5 Z"/></g>
<g><path style="opacity:0.008" fill="#33ccfe" d="M 650.5,136.5 C 649.833,135.167 649.833,135.167 650.5,136.5 Z"/></g>
<g><path style="opacity:0.008" fill="#33ccff" d="M 648.5,138.5 C 647.833,137.167 647.833,137.167 648.5,138.5 Z"/></g>
<g><path style="opacity:0.008" fill="#33ccff" d="M 678.5,138.5 C 679.833,139.167 679.833,139.167 678.5,138.5 Z"/></g>
<g><path style="opacity:0.008" fill="#33ccff" d="M 645.5,141.5 C 644.833,140.167 644.833,140.167 645.5,141.5 Z"/></g>
<g><path style="opacity:0.007" fill="#32cbfe" d="M 671.5,142.5 C 673.424,142.711 673.757,143.377 672.5,144.5C 672.167,143.833 671.833,143.167 671.5,142.5 Z"/></g>
<g><path style="opacity:0.004" fill="#32cbff" d="M 226.5,144.5 C 225.833,143.167 225.833,143.167 226.5,144.5 Z"/></g>
<g><path style="opacity:0.004" fill="#33ccff" d="M 234.5,143.5 C 235.833,144.167 235.833,144.167 234.5,143.5 Z"/></g>
<g><path style="opacity:0.92" fill="#32cbfe" d="M 226.5,144.5 C 229.167,144.5 231.833,144.5 234.5,144.5C 235.671,145.345 237.005,146.011 238.5,146.5C 244.708,152.135 246.041,158.801 242.5,166.5C 237.643,172.193 231.643,173.86 224.5,171.5C 223.71,170.599 222.71,169.932 221.5,169.5C 221.167,168.5 220.5,167.833 219.5,167.5C 219.068,166.29 218.401,165.29 217.5,164.5C 216.167,160.5 216.167,156.5 217.5,152.5C 218.401,151.71 219.068,150.71 219.5,149.5C 220.833,148.833 221.833,147.833 222.5,146.5C 224.153,146.34 225.486,145.674 226.5,144.5 Z"/></g>
<g><path style="opacity:0.012" fill="#33ccff" d="M 9.5,146.5 C 11.6282,145.371 13.9615,145.204 16.5,146C 14.1902,146.497 11.8568,146.663 9.5,146.5 Z"/></g>
<g><path style="opacity:0.012" fill="#33ccff" d="M 222.5,146.5 C 221.833,145.167 221.833,145.167 222.5,146.5 Z"/></g>
<g><path style="opacity:0.004" fill="#32cbff" d="M 238.5,145.5 C 239.833,146.167 239.833,146.167 238.5,145.5 Z"/></g>
<g><path style="opacity:0.012" fill="#32cbfe" d="M 263.5,146.5 C 265.628,145.371 267.961,145.204 270.5,146C 268.19,146.497 265.857,146.663 263.5,146.5 Z"/></g>
<g><path style="opacity:0.012" fill="#32cbfe" d="M 333.5,146.5 C 335.628,145.371 337.961,145.204 340.5,146C 338.19,146.497 335.857,146.663 333.5,146.5 Z"/></g>
<g><path style="opacity:0.01" fill="#32cbff" d="M 563.5,146.5 C 563.897,145.475 564.563,145.308 565.5,146C 564.906,146.464 564.239,146.631 563.5,146.5 Z"/></g>
<g><path style="opacity:0.016" fill="#33ccff" d="M 678.5,145.5 C 679.833,146.167 679.833,146.167 678.5,145.5 Z"/></g>
<g><path style="opacity:0.962" fill="#32cbfe" d="M 25.5,154.5 C 26.4421,163.113 26.7754,171.779 26.5,180.5C 41.245,180.184 55.9116,180.517 70.5,181.5C 71.795,182.488 73.1283,183.488 74.5,184.5C 74.6596,186.153 75.3263,187.486 76.5,188.5C 77.8333,191.833 77.8333,195.167 76.5,198.5C 74.8437,200.46 73.177,202.46 71.5,204.5C 69.5183,204.995 67.5183,205.495 65.5,206C 52.5043,206.5 39.5043,206.667 26.5,206.5C 26.1908,211.267 26.6908,215.934 28,220.5C 29.1667,223 31,224.833 33.5,226C 45.7581,227.439 58.0915,227.939 70.5,227.5C 71.5137,228.674 72.847,229.34 74.5,229.5C 74.8333,230.5 75.5,231.167 76.5,231.5C 76.9321,232.71 77.5987,233.71 78.5,234.5C 79.8333,239.167 79.8333,243.833 78.5,248.5C 77.0937,248.973 76.427,249.973 76.5,251.5C 74.2198,252.64 71.8864,253.807 69.5,255C 55.8076,255.76 42.141,255.594 28.5,254.5C 26.7857,253.262 24.7857,252.595 22.5,252.5C 21.0351,251.263 19.3684,250.263 17.5,249.5C 16.5637,248.026 15.2303,247.026 13.5,246.5C 12.1667,244.5 10.5,242.833 8.5,241.5C 5.55531,237.265 2.88864,232.932 0.5,228.5C 0.737305,227.209 0.403972,226.209 -0.5,225.5C -0.5,202.167 -0.5,178.833 -0.5,155.5C 0.338246,155.158 0.67158,154.492 0.5,153.5C 2.16667,152.5 3.5,151.167 4.5,149.5C 12.9152,145.75 19.9152,147.416 25.5,154.5 Z"/></g>
<g><path style="opacity:0.95" fill="#32cbfe" d="M 279.5,154.5 C 280.442,163.113 280.775,171.779 280.5,180.5C 290.552,180.216 300.552,180.55 310.5,181.5C 311.5,183.167 312.833,184.5 314.5,185.5C 317.165,190.505 317.165,195.505 314.5,200.5C 311.945,203.27 308.945,205.27 305.5,206.5C 297.167,206.5 288.833,206.5 280.5,206.5C 280.335,210.182 280.501,213.848 281,217.5C 281.232,218.737 281.732,219.737 282.5,220.5C 283.788,224.282 286.455,226.449 290.5,227C 296.825,227.5 303.158,227.666 309.5,227.5C 310.671,228.345 312.005,229.011 313.5,229.5C 317.838,233.506 319.838,238.506 319.5,244.5C 318.463,245.93 317.796,247.597 317.5,249.5C 316.167,250.167 315.167,251.167 314.5,252.5C 313.29,252.932 312.29,253.599 311.5,254.5C 301.853,255.777 292.186,255.777 282.5,254.5C 280.698,253.542 278.698,252.875 276.5,252.5C 275.035,251.263 273.368,250.263 271.5,249.5C 267.859,246.195 264.192,242.862 260.5,239.5C 258.43,235.792 256.43,232.125 254.5,228.5C 252.945,215.239 252.278,201.906 252.5,188.5C 252.667,178.5 252.833,168.5 253,158.5C 253.608,156.846 254.108,155.179 254.5,153.5C 256.167,152.5 257.5,151.167 258.5,149.5C 266.909,145.749 273.909,147.416 279.5,154.5 Z"/></g>
<g><path style="opacity:0.953" fill="#32cbfe" d="M 349.5,154.5 C 350.442,163.113 350.775,171.779 350.5,180.5C 359.839,180.334 369.173,180.5 378.5,181C 380.66,182.332 382.66,183.832 384.5,185.5C 384.796,187.403 385.463,189.07 386.5,190.5C 386.5,192.167 386.5,193.833 386.5,195.5C 385.514,197.426 384.514,199.426 383.5,201.5C 382.5,201.833 381.833,202.5 381.5,203.5C 379.426,204.514 377.426,205.514 375.5,206.5C 367.167,206.5 358.833,206.5 350.5,206.5C 350.334,210.514 350.501,214.514 351,218.5C 352.598,223.099 355.765,225.932 360.5,227C 366.825,227.5 373.158,227.666 379.5,227.5C 380.514,228.674 381.847,229.34 383.5,229.5C 384.167,230.833 385.167,231.833 386.5,232.5C 387.514,234.574 388.514,236.574 389.5,238.5C 389.426,242.794 388.426,246.794 386.5,250.5C 385.5,250.833 384.833,251.5 384.5,252.5C 382.973,252.427 381.973,253.094 381.5,254.5C 371.84,255.804 362.174,255.804 352.5,254.5C 350.698,253.542 348.698,252.875 346.5,252.5C 340.276,248.619 334.609,243.952 329.5,238.5C 327.814,235.128 326.147,231.795 324.5,228.5C 323.94,226.199 323.44,223.866 323,221.5C 322.333,200.167 322.333,178.833 323,157.5C 323.791,156.255 324.291,154.922 324.5,153.5C 326.167,152.5 327.5,151.167 328.5,149.5C 336.822,145.746 343.822,147.413 349.5,154.5 Z"/></g>
<g><path style="opacity:0.008" fill="#33ccff" d="M 4.5,149.5 C 3.83333,148.167 3.83333,148.167 4.5,149.5 Z"/></g>
<g><path style="opacity:0.004" fill="#32cbfe" d="M 21.5,148.5 C 22.8333,149.167 22.8333,149.167 21.5,148.5 Z"/></g>
<g><path style="opacity:0.008" fill="#33ccff" d="M 219.5,149.5 C 218.833,148.167 218.833,148.167 219.5,149.5 Z"/></g>
<g><path style="opacity:0.012" fill="#33ccff" d="M 258.5,149.5 C 257.833,148.167 257.833,148.167 258.5,149.5 Z"/></g>
<g><path style="opacity:0.004" fill="#33ccff" d="M 275.5,148.5 C 276.833,149.167 276.833,149.167 275.5,148.5 Z"/></g>
<g><path style="opacity:0.004" fill="#33ccfe" d="M 328.5,149.5 C 327.833,148.167 327.833,148.167 328.5,149.5 Z"/></g>
<g><path style="opacity:0.01" fill="#33ccfe" d="M 571.5,149.5 C 571.897,148.475 572.563,148.308 573.5,149C 572.906,149.464 572.239,149.631 571.5,149.5 Z"/></g>
<g><path style="opacity:0.012" fill="#33ccff" d="M 683.5,148.5 C 684.833,149.167 684.833,149.167 683.5,148.5 Z"/></g>
<g><path style="opacity:0.014" fill="#32cbfe" d="M 559.5,150.5 C 559.649,151.552 559.483,152.552 559,153.5C 558.26,152.251 558.427,151.251 559.5,150.5 Z"/></g>
<g><path style="opacity:0.004" fill="#32cbff" d="M 217.5,152.5 C 216.833,151.167 216.833,151.167 217.5,152.5 Z"/></g>
<g><path style="opacity:0.004" fill="#33ccfe" d="M 579.5,151.5 C 580.833,152.167 580.833,152.167 579.5,151.5 Z"/></g>
<g><path style="opacity:0.008" fill="#32cbff" d="M 637.5,152.5 C 636.833,151.167 636.833,151.167 637.5,152.5 Z"/></g>
<g><path style="opacity:0.008" fill="#33ccff" d="M -0.5,152.5 C 0.166667,152.5 0.5,152.833 0.5,153.5C 0.166667,153.167 -0.166667,152.833 -0.5,152.5 Z"/></g>
<g><path style="opacity:0.004" fill="#32cbff" d="M 244.5,152.5 C 245.833,153.167 245.833,153.167 244.5,152.5 Z"/></g>
<g><path style="opacity:0.012" fill="#33ccff" d="M 254.5,153.5 C 253.833,152.167 253.833,152.167 254.5,153.5 Z"/></g>
<g><path style="opacity:0.008" fill="#33ccff" d="M 324.5,153.5 C 323.833,152.167 323.833,152.167 324.5,153.5 Z"/></g>
<g><path style="opacity:0.012" fill="#33ccff" d="M 25.5,153.5 C 26.8333,154.167 26.8333,154.167 25.5,153.5 Z"/></g>
<g><path style="opacity:0.008" fill="#33ccff" d="M 279.5,153.5 C 280.833,154.167 280.833,154.167 279.5,153.5 Z"/></g>
<g><path style="opacity:0.012" fill="#32cbff" d="M 349.5,153.5 C 350.833,154.167 350.833,154.167 349.5,153.5 Z"/></g>
<g><path style="opacity:0.016" fill="#32cbff" d="M 584.5,153.5 C 585.833,154.167 585.833,154.167 584.5,153.5 Z"/></g>
<g><path style="opacity:0.004" fill="#33ccff" d="M 689.5,153.5 C 690.833,154.167 690.833,154.167 689.5,153.5 Z"/></g>
<g><path style="opacity:0.004" fill="#32cbff" d="M 692.5,155.5 C 693.833,156.167 693.833,156.167 692.5,155.5 Z"/></g>
<g><path style="opacity:0.008" fill="#33ccfe" d="M 590.5,157.5 C 590.897,156.475 591.563,156.308 592.5,157C 591.906,157.464 591.239,157.631 590.5,157.5 Z"/></g>
<g><path style="opacity:0.012" fill="#33ccfe" d="M 634.5,157.5 C 633.833,156.167 633.833,156.167 634.5,157.5 Z"/></g>
<g><path style="opacity:0.008" fill="#33ccff" d="M 694.5,158.5 C 695.833,159.167 695.833,159.167 694.5,158.5 Z"/></g>
<g><path style="opacity:0.008" fill="#32cbfe" d="M 320.5,159.5 C 321.662,178.996 321.829,198.662 321,218.5C 320.5,198.836 320.333,179.169 320.5,159.5 Z"/></g>
<g><path style="opacity:0.004" fill="#33ccff" d="M 561.5,159.5 C 562.833,160.167 562.833,160.167 561.5,159.5 Z"/></g>
<g><path style="opacity:0.008" fill="#33ccff" d="M 597.5,159.5 C 598.833,160.167 598.833,160.167 597.5,159.5 Z"/></g>
<g><path style="opacity:0.016" fill="#32cbfe" d="M 697.5,162.5 C 698.833,163.167 698.833,163.167 697.5,162.5 Z"/></g>
<g><path style="opacity:0.004" fill="#32cbfe" d="M 244.5,163.5 C 245.833,164.167 245.833,164.167 244.5,163.5 Z"/></g>
<g><path style="opacity:0.004" fill="#33ccff" d="M 565.5,163.5 C 564.833,164.167 564.833,164.167 565.5,163.5 Z"/></g>
<g><path style="opacity:0.004" fill="#32cbfe" d="M 217.5,164.5 C 216.833,165.167 216.833,165.167 217.5,164.5 Z"/></g>
<g><path style="opacity:0.016" fill="#33ccfe" d="M 607.5,164.5 C 608.833,165.167 608.833,165.167 607.5,164.5 Z"/></g>
<g><path style="opacity:0.004" fill="#33ccff" d="M 699.5,165.5 C 700.833,166.167 700.833,166.167 699.5,165.5 Z"/></g>
<g><path style="opacity:0.004" fill="#32cbfe" d="M 242.5,166.5 C 243.525,166.897 243.692,167.563 243,168.5C 242.536,167.906 242.369,167.239 242.5,166.5 Z"/></g>
<g><path style="opacity:0.008" fill="#33ccff" d="M 568.5,166.5 C 567.833,167.167 567.833,167.167 568.5,166.5 Z"/></g>
<g><path style="opacity:0.008" fill="#32cbfe" d="M 219.5,167.5 C 218.833,168.167 218.833,168.167 219.5,167.5 Z"/></g>
<g><path style="opacity:0.004" fill="#33ccff" d="M 612.5,167.5 C 613.833,168.167 613.833,168.167 612.5,167.5 Z"/></g>
<g><path style="opacity:0.012" fill="#32cbfe" d="M 629.5,168.5 C 628.833,167.167 628.833,167.167 629.5,168.5 Z"/></g>
<g><path style="opacity:0.004" fill="#32cbfe" d="M 221.5,169.5 C 220.833,170.167 220.833,170.167 221.5,169.5 Z"/></g>
<g><path style="opacity:0.004" fill="#33ccff" d="M 240.5,169.5 C 241.833,170.167 241.833,170.167 240.5,169.5 Z"/></g>
<g><path style="opacity:0.004" fill="#33ccfe" d="M 617.5,170.5 C 618.833,171.167 618.833,171.167 617.5,170.5 Z"/></g>
<g><path style="opacity:0.004" fill="#32cbff" d="M 224.5,171.5 C 223.833,172.167 223.833,172.167 224.5,171.5 Z"/></g>
<g><path style="opacity:0.004" fill="#33ccff" d="M 237.5,171.5 C 238.833,172.167 238.833,172.167 237.5,171.5 Z"/></g>
<g><path style="opacity:0.008" fill="#33ccfe" d="M 702.5,173.5 C 702.369,172.761 702.536,172.094 703,171.5C 703.692,172.437 703.525,173.103 702.5,173.5 Z"/></g>
<g><path style="opacity:0.012" fill="#33ccff" d="M 619.5,172.5 C 620.833,173.167 620.833,173.167 619.5,172.5 Z"/></g>
<g><path style="opacity:0.01" fill="#32cbff" d="M 626.5,175.5 C 625.475,175.103 625.308,174.437 626,173.5C 626.464,174.094 626.631,174.761 626.5,175.5 Z"/></g>
<g><path style="opacity:0.004" fill="#32cbff" d="M 622.5,174.5 C 623.833,175.167 623.833,175.167 622.5,174.5 Z"/></g>
<g><path style="opacity:0.004" fill="#32cbfe" d="M 624.5,176.5 C 625.833,177.167 625.833,177.167 624.5,176.5 Z"/></g>
<g><path style="opacity:0.004" fill="#33ccff" d="M 565.5,177.5 C 564.833,178.167 564.833,178.167 565.5,177.5 Z"/></g>
<g><path style="opacity:0.004" fill="#32cbfe" d="M 89.5,179.5 C 88.8333,178.167 88.8333,178.167 89.5,179.5 Z"/></g>
<g><path style="opacity:0.947" fill="#32cbfe" d="M 105.5,181.5 C 106.512,182.872 107.512,184.205 108.5,185.5C 109,198.217 109.834,210.884 111,223.5C 115.055,228.316 120.222,229.816 126.5,228C 128.79,226.223 130.457,224.056 131.5,221.5C 132.33,210.674 132.83,199.674 133,188.5C 133.608,186.846 134.108,185.179 134.5,183.5C 135.5,183.167 136.167,182.5 136.5,181.5C 141.501,178.425 146.835,177.759 152.5,179.5C 153.795,180.488 155.128,181.488 156.5,182.5C 157.32,184.812 158.153,187.146 159,189.5C 159.333,200.167 159.667,210.833 160,221.5C 160.278,222.416 160.778,223.082 161.5,223.5C 161.894,225.71 163.227,227.043 165.5,227.5C 168.833,228.833 172.167,228.833 175.5,227.5C 177.404,227.262 178.738,226.262 179.5,224.5C 181.067,223.319 181.901,221.653 182,219.5C 182.5,208.839 182.667,198.172 182.5,187.5C 186.563,178.813 193.229,176.147 202.5,179.5C 203.833,181.5 205.5,183.167 207.5,184.5C 208.817,199.154 208.817,213.821 207.5,228.5C 206.323,230.679 205.323,233.013 204.5,235.5C 200.873,240.794 196.54,245.461 191.5,249.5C 189.632,250.263 187.965,251.263 186.5,252.5C 184.597,252.796 182.93,253.463 181.5,254.5C 174.5,255.833 167.5,255.833 160.5,254.5C 158.698,253.542 156.698,252.875 154.5,252.5C 153.101,251.11 151.434,250.11 149.5,249.5C 149.027,248.094 148.027,247.427 146.5,247.5C 146.44,246.957 146.107,246.624 145.5,246.5C 141.064,249.714 136.397,252.38 131.5,254.5C 124.5,255.833 117.5,255.833 110.5,254.5C 107.021,252.597 103.354,250.93 99.5,249.5C 98.0892,247.086 96.0892,245.419 93.5,244.5C 91.1639,241.158 88.8305,237.825 86.5,234.5C 85.871,231.603 84.871,228.936 83.5,226.5C 82.2545,213.151 82.2545,199.817 83.5,186.5C 84.7368,185.035 85.7368,183.368 86.5,181.5C 87.7095,181.068 88.7095,180.401 89.5,179.5C 95.2364,177.671 100.57,178.338 105.5,181.5 Z"/></g>
<g><path style="opacity:0.004" fill="#33ccff" d="M 152.5,178.5 C 153.833,179.167 153.833,179.167 152.5,178.5 Z"/></g>
<g><path style="opacity:0.004" fill="#33ccff" d="M 202.5,178.5 C 203.833,179.167 203.833,179.167 202.5,178.5 Z"/></g>
<g><path style="opacity:0.946" fill="#32cbfe" d="M 240.5,181.5 C 240.833,182.5 241.5,183.167 242.5,183.5C 242.66,185.153 243.326,186.486 244.5,187.5C 244.667,206.836 244.5,226.17 244,245.5C 243.59,246.901 243.09,248.234 242.5,249.5C 237.643,255.193 231.643,256.86 224.5,254.5C 223.71,253.599 222.71,252.932 221.5,252.5C 221.167,251.5 220.5,250.833 219.5,250.5C 219.068,249.29 218.401,248.29 217.5,247.5C 216.178,227.154 216.178,206.821 217.5,186.5C 223.509,177.854 231.175,176.188 240.5,181.5 Z"/></g>
<g><path style="opacity:0.949" fill="#32cbfe" d="M 451.5,181.5 C 455.97,184.241 460.304,187.241 464.5,190.5C 465.811,193.135 467.478,195.469 469.5,197.5C 470.129,200.397 471.129,203.064 472.5,205.5C 473.726,209.845 473.726,214.178 472.5,218.5C 471.512,219.795 470.512,221.128 469.5,222.5C 468.833,222.5 468.5,222.833 468.5,223.5C 452.187,224.123 435.854,224.79 419.5,225.5C 419.624,226.107 419.957,226.44 420.5,226.5C 422.114,230.319 425.114,232.152 429.5,232C 440.161,232.5 450.828,232.667 461.5,232.5C 464.404,234.055 467.07,236.055 469.5,238.5C 470.833,242.167 470.833,245.833 469.5,249.5C 467.5,250.833 465.833,252.5 464.5,254.5C 449.519,255.8 434.519,255.8 419.5,254.5C 416.021,252.597 412.354,250.93 408.5,249.5C 408.027,248.094 407.027,247.427 405.5,247.5C 404.5,245.833 403.167,244.5 401.5,243.5C 401.167,242.5 400.5,241.833 399.5,241.5C 398.974,239.77 397.974,238.436 396.5,237.5C 395.737,235.632 394.737,233.965 393.5,232.5C 393.125,230.302 392.458,228.302 391.5,226.5C 389.822,217.318 390.488,208.318 393.5,199.5C 395.008,197.819 396.008,195.819 396.5,193.5C 398.89,192.109 400.557,190.109 401.5,187.5C 403.404,187.262 404.738,186.262 405.5,184.5C 407.434,183.89 409.101,182.89 410.5,181.5C 424.166,177.5 437.833,177.5 451.5,181.5 Z M 441.5,201.5 C 443.727,202.401 444.727,204.067 444.5,206.5C 436.14,206.831 427.807,206.498 419.5,205.5C 419.624,204.893 419.957,204.56 420.5,204.5C 420.5,202.5 421.5,201.5 423.5,201.5C 426.207,199.976 429.207,198.976 432.5,198.5C 435.793,198.976 438.793,199.976 441.5,201.5 Z"/></g>
<g><path style="opacity:0.006" fill="#33ccff" d="M 70.5,181.5 C 70.8966,180.475 71.5632,180.308 72.5,181C 71.9056,181.464 71.2389,181.631 70.5,181.5 Z"/></g>
<g><path style="opacity:0.004" fill="#33ccff" d="M 86.5,181.5 C 85.8333,180.167 85.8333,180.167 86.5,181.5 Z"/></g>
<g><path style="opacity:0.008" fill="#32cbff" d="M 105.5,180.5 C 106.833,181.167 106.833,181.167 105.5,180.5 Z"/></g>
<g><path style="opacity:0.008" fill="#33ccff" d="M 136.5,181.5 C 135.833,180.167 135.833,180.167 136.5,181.5 Z"/></g>
<g><path style="opacity:0.004" fill="#33ccff" d="M 240.5,180.5 C 241.833,181.167 241.833,181.167 240.5,180.5 Z"/></g>
<g><path style="opacity:0.012" fill="#32cbfe" d="M 310.5,180.5 C 311.833,181.167 311.833,181.167 310.5,180.5 Z"/></g>
<g><path style="opacity:0.008" fill="#33ccfe" d="M 380.5,180.5 C 381.833,181.167 381.833,181.167 380.5,180.5 Z"/></g>
<g><path style="opacity:0.016" fill="#33ccff" d="M 410.5,181.5 C 409.833,180.167 409.833,180.167 410.5,181.5 Z"/></g>
<g><path style="opacity:0.012" fill="#33ccff" d="M 451.5,181.5 C 451.897,180.475 452.563,180.308 453.5,181C 452.906,181.464 452.239,181.631 451.5,181.5 Z"/></g>
<g><path style="opacity:0.01" fill="#33ccff" d="M 504.5,181.5 C 503.761,181.631 503.094,181.464 502.5,181C 503.437,180.308 504.103,180.475 504.5,181.5 Z"/></g>
<g><path style="opacity:0.936" fill="#32cbfe" d="M 541.5,181.5 C 542.795,182.488 544.128,183.488 545.5,184.5C 546.633,187.271 547.633,190.104 548.5,193C 548.057,194.825 547.723,196.658 547.5,198.5C 545.844,200.46 544.177,202.46 542.5,204.5C 532.613,206.164 522.613,206.997 512.5,207C 510.014,207.656 508.347,209.156 507.5,211.5C 506.778,211.918 506.278,212.584 506,213.5C 505.768,224.866 505.268,236.199 504.5,247.5C 500.255,254.288 494.255,256.621 486.5,254.5C 483.833,252.5 481.5,250.167 479.5,247.5C 478.209,234.511 478.209,221.511 479.5,208.5C 480.871,206.064 481.871,203.397 482.5,200.5C 483.401,199.71 484.068,198.71 484.5,197.5C 485.488,196.205 486.488,194.872 487.5,193.5C 490.859,190.471 494.192,187.471 497.5,184.5C 500.018,183.736 502.351,182.736 504.5,181.5C 516.876,180.205 529.209,180.205 541.5,181.5 Z"/></g>
<g><path style="opacity:0.004" fill="#32cbfe" d="M 541.5,181.5 C 541.897,180.475 542.563,180.308 543.5,181C 542.906,181.464 542.239,181.631 541.5,181.5 Z"/></g>
<g><path style="opacity:0.004" fill="#33ccff" d="M 157.5,182.5 C 156.833,181.167 156.833,181.167 157.5,182.5 Z"/></g>
<g><path style="opacity:0.016" fill="#33ccfe" d="M 567.5,181.5 C 566.833,182.167 566.833,182.167 567.5,181.5 Z"/></g>
<g><path style="opacity:0.004" fill="#33ccfe" d="M 134.5,183.5 C 133.833,182.167 133.833,182.167 134.5,183.5 Z"/></g>
<g><path style="opacity:0.004" fill="#32cbff" d="M 157.5,182.5 C 158.833,183.167 158.833,183.167 157.5,182.5 Z"/></g>
<g><path style="opacity:0.008" fill="#33ccff" d="M 242.5,182.5 C 243.833,183.167 243.833,183.167 242.5,182.5 Z"/></g>
<g><path style="opacity:0.004" fill="#32cbff" d="M 405.5,182.5 C 406.833,183.167 406.833,183.167 405.5,182.5 Z"/></g>
<g><path style="opacity:0.004" fill="#33ccfe" d="M 74.5,183.5 C 75.8333,184.167 75.8333,184.167 74.5,183.5 Z"/></g>
<g><path style="opacity:0.008" fill="#33ccff" d="M 207.5,183.5 C 208.833,184.167 208.833,184.167 207.5,183.5 Z"/></g>
<g><path style="opacity:0.008" fill="#33ccff" d="M 405.5,183.5 C 405.5,183.833 405.5,184.167 405.5,184.5C 404.83,184.019 404.83,183.685 405.5,183.5 Z"/></g>
<g><path style="opacity:0.004" fill="#33ccff" d="M 457.5,183.5 C 458.833,184.167 458.833,184.167 457.5,183.5 Z"/></g>
<g><path style="opacity:0.008" fill="#33ccff" d="M 497.5,184.5 C 496.833,183.167 496.833,183.167 497.5,184.5 Z"/></g>
<g><path style="opacity:0.004" fill="#33ccfe" d="M 545.5,183.5 C 546.833,184.167 546.833,184.167 545.5,183.5 Z"/></g>
<g><path style="opacity:0.004" fill="#33ccfe" d="M 726.5,183.5 C 726.833,183.5 727.167,183.5 727.5,183.5C 727.5,183.833 727.5,184.167 727.5,184.5C 727.167,184.167 726.833,183.833 726.5,183.5 Z"/></g>
<g><path style="opacity:0.012" fill="#33ccff" d="M 108.5,184.5 C 109.833,185.167 109.833,185.167 108.5,184.5 Z"/></g>
<g><path style="opacity:0.012" fill="#33ccff" d="M 314.5,184.5 C 315.833,185.167 315.833,185.167 314.5,184.5 Z"/></g>
<g><path style="opacity:0.004" fill="#32cbfe" d="M 384.5,184.5 C 385.833,185.167 385.833,185.167 384.5,184.5 Z"/></g>
<g><path style="opacity:0.008" fill="#33ccff" d="M 83.5,186.5 C 82.8333,185.167 82.8333,185.167 83.5,186.5 Z"/></g>
<g><path style="opacity:0.006" fill="#32cbfe" d="M 182.5,187.5 C 181.475,187.103 181.308,186.437 182,185.5C 182.464,186.094 182.631,186.761 182.5,187.5 Z"/></g>
<g><path style="opacity:0.004" fill="#33ccfe" d="M 217.5,186.5 C 216.833,185.167 216.833,185.167 217.5,186.5 Z"/></g>
<g><path style="opacity:0.004" fill="#33ccff" d="M 401.5,185.5 C 402.833,186.167 402.833,186.167 401.5,185.5 Z"/></g>
<g><path style="opacity:0.004" fill="#32cbfe" d="M 569.5,185.5 C 570.833,186.167 570.833,186.167 569.5,185.5 Z"/></g>
<g><path style="opacity:0.008" fill="#32cbff" d="M 76.5,188.5 C 76.369,187.761 76.5357,187.094 77,186.5C 77.6917,187.437 77.525,188.103 76.5,188.5 Z"/></g>
<g><path style="opacity:0.014" fill="#33ccff" d="M 159.5,186.5 C 160.525,186.897 160.692,187.563 160,188.5C 159.536,187.906 159.369,187.239 159.5,186.5 Z"/></g>
<g><path style="opacity:0.008" fill="#32cbfe" d="M 244.5,186.5 C 245.833,187.167 245.833,187.167 244.5,186.5 Z"/></g>
<g><path style="opacity:0.004" fill="#32cbfe" d="M 401.5,186.5 C 401.5,186.833 401.5,187.167 401.5,187.5C 400.83,187.019 400.83,186.685 401.5,186.5 Z"/></g>
<g><path style="opacity:0.012" fill="#33ccfe" d="M 547.5,186.5 C 548.833,187.167 548.833,187.167 547.5,186.5 Z"/></g>
<g><path style="opacity:0.004" fill="#32cbff" d="M 573.5,187.5 C 572.833,188.167 572.833,188.167 573.5,187.5 Z"/></g>
<g><path style="opacity:0.006" fill="#32cbff" d="M 386.5,190.5 C 386.369,189.761 386.536,189.094 387,188.5C 387.692,189.437 387.525,190.103 386.5,190.5 Z"/></g>
<g><path style="opacity:0.004" fill="#33ccfe" d="M 398.5,188.5 C 399.833,189.167 399.833,189.167 398.5,188.5 Z"/></g>
<g><path style="opacity:0.008" fill="#32cbfe" d="M 131.5,221.5 C 130.341,211.008 130.175,200.341 131,189.5C 131.5,200.161 131.667,210.828 131.5,221.5 Z"/></g>
<g><path style="opacity:0.004" fill="#33ccfe" d="M 464.5,189.5 C 465.833,190.167 465.833,190.167 464.5,189.5 Z"/></g>
<g><path style="opacity:0.008" fill="#33ccfe" d="M 718.5,190.5 C 719.833,191.167 719.833,191.167 718.5,190.5 Z"/></g>
<g><path style="opacity:0.008" fill="#33ccfe" d="M 396.5,193.5 C 395.833,192.167 395.833,192.167 396.5,193.5 Z"/></g>
<g><path style="opacity:0.004" fill="#32cbfe" d="M 487.5,193.5 C 486.833,192.167 486.833,192.167 487.5,193.5 Z"/></g>
<g><path style="opacity:0.004" fill="#32cbff" d="M 575.5,194.5 C 574.833,193.167 574.833,193.167 575.5,194.5 Z"/></g>
<g><path style="opacity:0.006" fill="#33ccff" d="M 386.5,195.5 C 387.525,195.897 387.692,196.563 387,197.5C 386.536,196.906 386.369,196.239 386.5,195.5 Z"/></g>
<g><path style="opacity:0.004" fill="#32cbfe" d="M 484.5,197.5 C 483.475,197.103 483.308,196.437 484,195.5C 484.464,196.094 484.631,196.761 484.5,197.5 Z"/></g>
<g><path style="opacity:0.004" fill="#32cbff" d="M 573.5,196.5 C 572.833,195.167 572.833,195.167 573.5,196.5 Z"/></g>
<g><path style="opacity:0.008" fill="#33ccfe" d="M 469.5,196.5 C 470.833,197.167 470.833,197.167 469.5,196.5 Z"/></g>
<g><path style="opacity:0.012" fill="#33ccff" d="M 393.5,199.5 C 392.475,199.103 392.308,198.437 393,197.5C 393.464,198.094 393.631,198.761 393.5,199.5 Z"/></g>
<g><path style="opacity:0.012" fill="#32cbfe" d="M 76.5,198.5 C 77.8333,199.167 77.8333,199.167 76.5,198.5 Z"/></g>
<g><path style="opacity:0.012" fill="#33ccfe" d="M 547.5,198.5 C 548.833,199.167 548.833,199.167 547.5,198.5 Z"/></g>
<g><path style="opacity:0.008" fill="#33ccff" d="M 724.5,198.5 C 725.833,199.167 725.833,199.167 724.5,198.5 Z"/></g>
<g><path style="opacity:0.004" fill="#33ccff" d="M 482.5,200.5 C 481.833,199.167 481.833,199.167 482.5,200.5 Z"/></g>
<g><path style="opacity:0.004" fill="#33ccff" d="M 573.5,199.5 C 572.833,200.167 572.833,200.167 573.5,199.5 Z"/></g>
<g><path style="opacity:0.004" fill="#33ccff" d="M 724.5,199.5 C 723.833,200.167 723.833,200.167 724.5,199.5 Z"/></g>
<g><path style="opacity:0.004" fill="#33ccff" d="M 314.5,200.5 C 315.833,201.167 315.833,201.167 314.5,200.5 Z"/></g>
<g><path style="opacity:0.004" fill="#33ccfe" d="M 383.5,201.5 C 384.833,202.167 384.833,202.167 383.5,201.5 Z"/></g>
<g><path style="opacity:0.016" fill="#33ccff" d="M 719.5,201.5 C 720.833,202.167 720.833,202.167 719.5,201.5 Z"/></g>
<g><path style="opacity:0.008" fill="#32cbfe" d="M 472.5,205.5 C 472.351,204.448 472.517,203.448 473,202.5C 473.74,203.749 473.573,204.749 472.5,205.5 Z"/></g>
<g><path style="opacity:0.004" fill="#33ccfe" d="M 575.5,202.5 C 574.833,203.167 574.833,203.167 575.5,202.5 Z"/></g>
<g><path style="opacity:0.004" fill="#33ccfe" d="M 381.5,203.5 C 382.833,204.167 382.833,204.167 381.5,203.5 Z"/></g>
<g><path style="opacity:0.004" fill="#33ccff" d="M 390.5,203.5 C 391.833,204.167 391.833,204.167 390.5,203.5 Z"/></g>
<g><path style="opacity:0.018" fill="#32cbfe" d="M 420.5,204.5 C 421.117,204.389 421.617,204.056 422,203.5C 429.087,204.315 436.253,204.815 443.5,205C 435.655,205.822 427.989,205.656 420.5,204.5 Z"/></g>
<g><path style="opacity:0.004" fill="#33ccff" d="M 71.5,204.5 C 72.8333,205.167 72.8333,205.167 71.5,204.5 Z"/></g>
<g><path style="opacity:0.004" fill="#33ccff" d="M 542.5,204.5 C 543.833,205.167 543.833,205.167 542.5,204.5 Z"/></g>
<g><path style="opacity:0.004" fill="#33ccff" d="M 705.5,204.5 C 706.833,205.167 706.833,205.167 705.5,204.5 Z"/></g>
<g><path style="opacity:0.008" fill="#33ccfe" d="M 66.5,207.5 C 66.8966,206.475 67.5632,206.308 68.5,207C 67.9056,207.464 67.2389,207.631 66.5,207.5 Z"/></g>
<g><path style="opacity:0.008" fill="#32cbfe" d="M 305.5,206.5 C 306.239,206.369 306.906,206.536 307.5,207C 306.563,207.692 305.897,207.525 305.5,206.5 Z"/></g>
<g><path style="opacity:0.01" fill="#32cbff" d="M 375.5,206.5 C 376.239,206.369 376.906,206.536 377.5,207C 376.563,207.692 375.897,207.525 375.5,206.5 Z"/></g>
<g><path style="opacity:0.01" fill="#33ccff" d="M 479.5,208.5 C 478.475,208.103 478.308,207.437 479,206.5C 479.464,207.094 479.631,207.761 479.5,208.5 Z"/></g>
<g><path style="opacity:0.008" fill="#32cbfe" d="M 537.5,207.5 C 537.897,206.475 538.563,206.308 539.5,207C 538.906,207.464 538.239,207.631 537.5,207.5 Z"/></g>
<g><path style="opacity:0.004" fill="#32cbff" d="M 509.5,209.5 C 510.833,210.167 510.833,210.167 509.5,209.5 Z"/></g>
<g><path style="opacity:0.01" fill="#32cbff" d="M 586.5,209.5 C 586.103,210.525 585.437,210.692 584.5,210C 585.094,209.536 585.761,209.369 586.5,209.5 Z"/></g>
<g><path style="opacity:0.02" fill="#32cbfe" d="M 507.5,211.5 C 508.833,212.167 508.833,212.167 507.5,211.5 Z"/></g>
<g><path style="opacity:0.004" fill="#33ccff" d="M 591.5,212.5 C 590.833,211.167 590.833,211.167 591.5,212.5 Z"/></g>
<g><path style="opacity:0.012" fill="#32cbfe" d="M 702.5,212.5 C 703.833,213.167 703.833,213.167 702.5,212.5 Z"/></g>
<g><path style="opacity:0.008" fill="#33ccff" d="M 589.5,215.5 C 588.833,214.167 588.833,214.167 589.5,215.5 Z"/></g>
<g><path style="opacity:0.004" fill="#33ccff" d="M 351.5,216.5 C 352.833,217.167 352.833,217.167 351.5,216.5 Z"/></g>
<g><path style="opacity:0.01" fill="#33ccfe" d="M 282.5,220.5 C 282.369,219.761 282.536,219.094 283,218.5C 283.692,219.437 283.525,220.103 282.5,220.5 Z"/></g>
<g><path style="opacity:0.016" fill="#33ccff" d="M 472.5,218.5 C 473.833,219.167 473.833,219.167 472.5,218.5 Z"/></g>
<g><path style="opacity:0.008" fill="#32cbff" d="M 699.5,218.5 C 700.833,219.167 700.833,219.167 699.5,218.5 Z"/></g>
<g><path style="opacity:0.008" fill="#33ccff" d="M 589.5,220.5 C 588.833,221.167 588.833,221.167 589.5,220.5 Z"/></g>
<g><path style="opacity:0.004" fill="#33ccff" d="M 32.5,223.5 C 31.8333,222.167 31.8333,222.167 32.5,223.5 Z"/></g>
<g><path style="opacity:0.004" fill="#33ccff" d="M 162.5,223.5 C 161.833,222.167 161.833,222.167 162.5,223.5 Z"/></g>
<g><path style="opacity:0.004" fill="#33ccff" d="M 286.5,223.5 C 285.833,222.167 285.833,222.167 286.5,223.5 Z"/></g>
<g><path style="opacity:0.008" fill="#32cbfe" d="M 469.5,222.5 C 470.833,223.167 470.833,223.167 469.5,222.5 Z"/></g>
<g><path style="opacity:0.016" fill="#32cbfe" d="M 697.5,222.5 C 698.833,223.167 698.833,223.167 697.5,222.5 Z"/></g>
<g><path style="opacity:0.004" fill="#32cbff" d="M 32.5,223.5 C 33.8333,224.167 33.8333,224.167 32.5,223.5 Z"/></g>
<g><path style="opacity:0.004" fill="#32cbfe" d="M 162.5,223.5 C 163.833,224.167 163.833,224.167 162.5,223.5 Z"/></g>
<g><path style="opacity:0.012" fill="#32cbfe" d="M 179.5,224.5 C 178.833,223.167 178.833,223.167 179.5,224.5 Z"/></g>
<g><path style="opacity:0.004" fill="#33ccff" d="M 286.5,223.5 C 287.833,224.167 287.833,224.167 286.5,223.5 Z"/></g>
<g><path style="opacity:0.004" fill="#33ccfe" d="M 468.5,223.5 C 468.833,223.5 469.167,223.5 469.5,223.5C 469.315,224.17 468.981,224.17 468.5,223.5 Z"/></g>
<g><path style="opacity:0.004" fill="#33ccff" d="M 175.5,225.5 C 176.833,226.167 176.833,226.167 175.5,225.5 Z"/></g>
<g><path style="opacity:0.011" fill="#32cbfe" d="M 420.5,226.5 C 434.994,225.339 449.661,225.172 464.5,226C 449.837,226.5 435.17,226.667 420.5,226.5 Z"/></g>
<g><path style="opacity:0.008" fill="#32cbff" d="M 593.5,225.5 C 592.833,226.167 592.833,226.167 593.5,225.5 Z"/></g>
<g><path style="opacity:0.004" fill="#33ccff" d="M 70.5,226.5 C 71.8333,227.167 71.8333,227.167 70.5,226.5 Z"/></g>
<g><path style="opacity:0.008" fill="#33ccff" d="M 83.5,226.5 C 83.631,227.239 83.4643,227.906 83,228.5C 82.3083,227.563 82.475,226.897 83.5,226.5 Z"/></g>
<g><path style="opacity:0.004" fill="#33ccfe" d="M 116.5,226.5 C 117.833,227.167 117.833,227.167 116.5,226.5 Z"/></g>
<g><path style="opacity:0.004" fill="#33ccff" d="M 124.5,226.5 C 125.833,227.167 125.833,227.167 124.5,226.5 Z"/></g>
<g><path style="opacity:0.008" fill="#33ccfe" d="M 165.5,226.5 C 166.833,227.167 166.833,227.167 165.5,226.5 Z"/></g>
<g><path style="opacity:0.008" fill="#32cbff" d="M 175.5,226.5 C 175.5,226.833 175.5,227.167 175.5,227.5C 174.83,227.019 174.83,226.685 175.5,226.5 Z"/></g>
<g><path style="opacity:0.004" fill="#32cbff" d="M 309.5,226.5 C 310.833,227.167 310.833,227.167 309.5,226.5 Z"/></g>
<g><path style="opacity:0.004" fill="#32cbff" d="M 379.5,226.5 C 380.833,227.167 380.833,227.167 379.5,226.5 Z"/></g>
<g><path style="opacity:0.008" fill="#33ccff" d="M 391.5,226.5 C 390.833,227.167 390.833,227.167 391.5,226.5 Z"/></g>
<g><path style="opacity:0.004" fill="#32cbff" d="M 694.5,227.5 C 695.833,228.167 695.833,228.167 694.5,227.5 Z"/></g>
<g><path style="opacity:0.012" fill="#33ccff" d="M -0.5,228.5 C -0.166667,228.5 0.166667,228.5 0.5,228.5C 0.31468,229.17 -0.0186536,229.17 -0.5,228.5 Z"/></g>
<g><path style="opacity:0.008" fill="#33ccff" d="M 74.5,228.5 C 75.8333,229.167 75.8333,229.167 74.5,228.5 Z"/></g>
<g><path style="opacity:0.012" fill="#32cbfe" d="M 207.5,228.5 C 208.525,228.897 208.692,229.563 208,230.5C 207.536,229.906 207.369,229.239 207.5,228.5 Z"/></g>
<g><path style="opacity:0.012" fill="#33ccfe" d="M 254.5,228.5 C 254.631,229.239 254.464,229.906 254,230.5C 253.308,229.563 253.475,228.897 254.5,228.5 Z"/></g>
<g><path style="opacity:0.008" fill="#33ccff" d="M 313.5,228.5 C 314.833,229.167 314.833,229.167 313.5,228.5 Z"/></g>
<g><path style="opacity:0.004" fill="#33ccfe" d="M 324.5,228.5 C 324.631,229.239 324.464,229.906 324,230.5C 323.308,229.563 323.475,228.897 324.5,228.5 Z"/></g>
<g><path style="opacity:0.012" fill="#32cbff" d="M 383.5,228.5 C 384.833,229.167 384.833,229.167 383.5,228.5 Z"/></g>
<g><path style="opacity:0.012" fill="#33ccff" d="M 423.5,228.5 C 424.833,229.167 424.833,229.167 423.5,228.5 Z"/></g>
<g><path style="opacity:0.008" fill="#33ccfe" d="M 534.5,228.5 C 535.833,229.167 535.833,229.167 534.5,228.5 Z"/></g>
<g><path style="opacity:0.004" fill="#33ccfe" d="M 597.5,228.5 C 598.833,229.167 598.833,229.167 597.5,228.5 Z"/></g>
<g><path style="opacity:0.004" fill="#32cbff" d="M 76.5,230.5 C 77.8333,231.167 77.8333,231.167 76.5,230.5 Z"/></g>
<g><path style="opacity:0.004" fill="#33ccfe" d="M 386.5,231.5 C 387.833,232.167 387.833,232.167 386.5,231.5 Z"/></g>
<g><path style="opacity:0.008" fill="#33ccff" d="M 461.5,232.5 C 461.897,231.475 462.563,231.308 463.5,232C 462.906,232.464 462.239,232.631 461.5,232.5 Z"/></g>
<g><path style="opacity:0.012" fill="#33ccff" d="M 538.5,231.5 C 539.833,232.167 539.833,232.167 538.5,231.5 Z"/></g>
<g><path style="opacity:0.004" fill="#33ccfe" d="M 593.5,231.5 C 594.833,232.167 594.833,232.167 593.5,231.5 Z"/></g>
<g><path style="opacity:0.004" fill="#33ccff" d="M 691.5,231.5 C 692.833,232.167 692.833,232.167 691.5,231.5 Z"/></g>
<g><path style="opacity:0.016" fill="#33ccff" d="M 393.5,232.5 C 392.833,233.167 392.833,233.167 393.5,232.5 Z"/></g>
<g><path style="opacity:0.004" fill="#33ccff" d="M 78.5,233.5 C 79.8333,234.167 79.8333,234.167 78.5,233.5 Z"/></g>
<g><path style="opacity:0.004" fill="#32cbff" d="M 542.5,233.5 C 543.833,234.167 543.833,234.167 542.5,233.5 Z"/></g>
<g><path style="opacity:0.008" fill="#33ccff" d="M 689.5,233.5 C 690.833,234.167 690.833,234.167 689.5,233.5 Z"/></g>
<g><path style="opacity:0.004" fill="#33ccfe" d="M 86.5,234.5 C 85.8333,235.167 85.8333,235.167 86.5,234.5 Z"/></g>
<g><path style="opacity:0.004" fill="#33ccff" d="M 589.5,235.5 C 588.833,234.167 588.833,234.167 589.5,235.5 Z"/></g>
<g><path style="opacity:0.004" fill="#32cbff" d="M 204.5,235.5 C 205.833,236.167 205.833,236.167 204.5,235.5 Z"/></g>
<g><path style="opacity:0.004" fill="#32cbfe" d="M 256.5,235.5 C 257.833,236.167 257.833,236.167 256.5,235.5 Z"/></g>
<g><path style="opacity:0.004" fill="#33ccfe" d="M 534.5,235.5 C 535.833,236.167 535.833,236.167 534.5,235.5 Z"/></g>
<g><path style="opacity:0.004" fill="#33ccff" d="M 319.5,236.5 C 320.833,237.167 320.833,237.167 319.5,236.5 Z"/></g>
<g><path style="opacity:0.012" fill="#33ccfe" d="M 389.5,238.5 C 389.369,237.761 389.536,237.094 390,236.5C 390.692,237.437 390.525,238.103 389.5,238.5 Z"/></g>
<g><path style="opacity:0.014" fill="#32cbfe" d="M 548.5,237.5 C 548.897,236.475 549.563,236.308 550.5,237C 549.906,237.464 549.239,237.631 548.5,237.5 Z"/></g>
<g><path style="opacity:0.012" fill="#33ccfe" d="M 585.5,237.5 C 584.761,237.631 584.094,237.464 583.5,237C 584.437,236.308 585.103,236.475 585.5,237.5 Z"/></g>
<g><path style="opacity:0.004" fill="#33ccff" d="M 687.5,236.5 C 688.833,237.167 688.833,237.167 687.5,236.5 Z"/></g>
<g><path style="opacity:0.008" fill="#33ccff" d="M 396.5,237.5 C 395.833,238.167 395.833,238.167 396.5,237.5 Z"/></g>
<g><path style="opacity:0.004" fill="#33ccff" d="M 469.5,237.5 C 470.833,238.167 470.833,238.167 469.5,237.5 Z"/></g>
<g><path style="opacity:0.004" fill="#33ccff" d="M 4.5,238.5 C 5.83333,239.167 5.83333,239.167 4.5,238.5 Z"/></g>
<g><path style="opacity:0.004" fill="#33ccff" d="M 87.5,238.5 C 88.8333,239.167 88.8333,239.167 87.5,238.5 Z"/></g>
<g><path style="opacity:0.012" fill="#33ccfe" d="M 329.5,238.5 C 328.833,239.167 328.833,239.167 329.5,238.5 Z"/></g>
<g><path style="opacity:0.008" fill="#32cbfe" d="M 538.5,238.5 C 537.833,239.167 537.833,239.167 538.5,238.5 Z"/></g>
<g><path style="opacity:0.004" fill="#33ccfe" d="M 202.5,239.5 C 203.833,240.167 203.833,240.167 202.5,239.5 Z"/></g>
<g><path style="opacity:0.004" fill="#32cbff" d="M 260.5,239.5 C 259.833,240.167 259.833,240.167 260.5,239.5 Z"/></g>
<g><path style="opacity:0.004" fill="#33ccfe" d="M 684.5,239.5 C 685.833,240.167 685.833,240.167 684.5,239.5 Z"/></g>
<g><path style="opacity:0.004" fill="#33ccff" d="M 8.5,241.5 C 7.83333,242.167 7.83333,242.167 8.5,241.5 Z"/></g>
<g><path style="opacity:0.004" fill="#33ccff" d="M 331.5,242.5 C 330.833,241.167 330.833,241.167 331.5,242.5 Z"/></g>
<g><path style="opacity:0.008" fill="#33ccff" d="M 399.5,241.5 C 398.833,242.167 398.833,242.167 399.5,241.5 Z"/></g>
<g><path style="opacity:0.008" fill="#33ccff" d="M 541.5,241.5 C 540.833,242.167 540.833,242.167 541.5,241.5 Z"/></g>
<g><path style="opacity:0.004" fill="#32cbfe" d="M 331.5,242.5 C 332.833,243.167 332.833,243.167 331.5,242.5 Z"/></g>
<g><path style="opacity:0.004" fill="#33ccff" d="M 401.5,243.5 C 400.833,244.167 400.833,244.167 401.5,243.5 Z"/></g>
<g><path style="opacity:0.004" fill="#33ccfe" d="M 93.5,244.5 C 92.8333,245.167 92.8333,245.167 93.5,244.5 Z"/></g>
<g><path style="opacity:0.004" fill="#32cbfe" d="M 263.5,244.5 C 264.833,245.167 264.833,245.167 263.5,244.5 Z"/></g>
<g><path style="opacity:0.006" fill="#32cbfe" d="M 319.5,244.5 C 320.525,244.897 320.692,245.563 320,246.5C 319.536,245.906 319.369,245.239 319.5,244.5 Z"/></g>
<g><path style="opacity:0.004" fill="#32cbfe" d="M 333.5,244.5 C 334.833,245.167 334.833,245.167 333.5,244.5 Z"/></g>
<g><path style="opacity:0.012" fill="#32cbfe" d="M 389.5,244.5 C 390.525,244.897 390.692,245.563 390,246.5C 389.536,245.906 389.369,245.239 389.5,244.5 Z"/></g>
<g><path style="opacity:0.004" fill="#32cbff" d="M 544.5,244.5 C 543.833,245.167 543.833,245.167 544.5,244.5 Z"/></g>
<g><path style="opacity:0.012" fill="#33ccfe" d="M 13.5,246.5 C 12.8333,247.167 12.8333,247.167 13.5,246.5 Z"/></g>
<g><path style="opacity:0.004" fill="#32cbff" d="M 146.5,247.5 C 145.833,248.167 145.833,248.167 146.5,247.5 Z"/></g>
<g><path style="opacity:0.008" fill="#32cbfe" d="M 217.5,247.5 C 216.833,248.167 216.833,248.167 217.5,247.5 Z"/></g>
<g><path style="opacity:0.004" fill="#33ccff" d="M 405.5,247.5 C 404.833,248.167 404.833,248.167 405.5,247.5 Z"/></g>
<g><path style="opacity:0.012" fill="#33ccff" d="M 479.5,247.5 C 478.833,248.167 478.833,248.167 479.5,247.5 Z"/></g>
<g><path style="opacity:0.008" fill="#32cbff" d="M 504.5,247.5 C 505.525,247.897 505.692,248.563 505,249.5C 504.536,248.906 504.369,248.239 504.5,247.5 Z"/></g>
<g><path style="opacity:0.004" fill="#32cbfe" d="M 78.5,248.5 C 79.8333,249.167 79.8333,249.167 78.5,248.5 Z"/></g>
<g><path style="opacity:0.012" fill="#32cbff" d="M 17.5,249.5 C 16.8333,250.167 16.8333,250.167 17.5,249.5 Z"/></g>
<g><path style="opacity:0.008" fill="#33ccfe" d="M 99.5,249.5 C 98.8333,250.167 98.8333,250.167 99.5,249.5 Z"/></g>
<g><path style="opacity:0.004" fill="#33ccff" d="M 142.5,249.5 C 143.833,250.167 143.833,250.167 142.5,249.5 Z"/></g>
<g><path style="opacity:0.012" fill="#33ccfe" d="M 149.5,249.5 C 148.833,250.167 148.833,250.167 149.5,249.5 Z"/></g>
<g><path style="opacity:0.006" fill="#32cbfe" d="M 191.5,249.5 C 192.239,249.369 192.906,249.536 193.5,250C 192.563,250.692 191.897,250.525 191.5,249.5 Z"/></g>
<g><path style="opacity:0.008" fill="#33ccff" d="M 242.5,249.5 C 243.833,250.167 243.833,250.167 242.5,249.5 Z"/></g>
<g><path style="opacity:0.008" fill="#33ccff" d="M 271.5,249.5 C 270.833,250.167 270.833,250.167 271.5,249.5 Z"/></g>
<g><path style="opacity:0.004" fill="#33ccff" d="M 317.5,249.5 C 318.833,250.167 318.833,250.167 317.5,249.5 Z"/></g>
<g><path style="opacity:0.012" fill="#33ccff" d="M 408.5,249.5 C 407.833,250.167 407.833,250.167 408.5,249.5 Z"/></g>
<g><path style="opacity:0.004" fill="#33ccff" d="M 469.5,249.5 C 470.833,250.167 470.833,250.167 469.5,249.5 Z"/></g>
<g><path style="opacity:0.004" fill="#32cbff" d="M 549.5,249.5 C 550.833,250.167 550.833,250.167 549.5,249.5 Z"/></g>
<g><path style="opacity:0.004" fill="#33ccff" d="M 671.5,249.5 C 672.833,250.167 672.833,250.167 671.5,249.5 Z"/></g>
<g><path style="opacity:0.008" fill="#33ccff" d="M 219.5,250.5 C 218.833,251.167 218.833,251.167 219.5,250.5 Z"/></g>
<g><path style="opacity:0.004" fill="#33ccfe" d="M 386.5,250.5 C 387.833,251.167 387.833,251.167 386.5,250.5 Z"/></g>
<g><path style="opacity:0.004" fill="#33ccff" d="M 76.5,251.5 C 77.8333,252.167 77.8333,252.167 76.5,251.5 Z"/></g>
<g><path style="opacity:0.016" fill="#33ccff" d="M 22.5,252.5 C 21.8333,253.167 21.8333,253.167 22.5,252.5 Z"/></g>
<g><path style="opacity:0.004" fill="#32cbfe" d="M 76.5,252.5 C 75.8333,253.167 75.8333,253.167 76.5,252.5 Z"/></g>
<g><path style="opacity:0.012" fill="#32cbfe" d="M 103.5,252.5 C 104.833,253.167 104.833,253.167 103.5,252.5 Z"/></g>
<g><path style="opacity:0.012" fill="#32cbff" d="M 137.5,252.5 C 138.833,253.167 138.833,253.167 137.5,252.5 Z"/></g>
<g><path style="opacity:0.02" fill="#33ccff" d="M 154.5,252.5 C 153.833,253.167 153.833,253.167 154.5,252.5 Z"/></g>
<g><path style="opacity:0.012" fill="#33ccff" d="M 186.5,252.5 C 187.239,252.369 187.906,252.536 188.5,253C 187.563,253.692 186.897,253.525 186.5,252.5 Z"/></g>
<g><path style="opacity:0.008" fill="#32cbfe" d="M 221.5,252.5 C 220.833,253.167 220.833,253.167 221.5,252.5 Z"/></g>
<g><path style="opacity:0.016" fill="#32cbfe" d="M 276.5,252.5 C 275.833,253.167 275.833,253.167 276.5,252.5 Z"/></g>
<g><path style="opacity:0.012" fill="#33ccff" d="M 314.5,252.5 C 315.833,253.167 315.833,253.167 314.5,252.5 Z"/></g>
<g><path style="opacity:0.01" fill="#32cbfe" d="M 346.5,252.5 C 346.103,253.525 345.437,253.692 344.5,253C 345.094,252.536 345.761,252.369 346.5,252.5 Z"/></g>
<g><path style="opacity:0.008" fill="#32cbff" d="M 384.5,252.5 C 385.833,253.167 385.833,253.167 384.5,252.5 Z"/></g>
<g><path style="opacity:0.012" fill="#33ccff" d="M 412.5,252.5 C 413.833,253.167 413.833,253.167 412.5,252.5 Z"/></g>
<g><path style="opacity:0.004" fill="#32cbfe" d="M 467.5,252.5 C 468.833,253.167 468.833,253.167 467.5,252.5 Z"/></g>
<g><path style="opacity:0.008" fill="#33ccff" d="M 555.5,252.5 C 554.833,253.167 554.833,253.167 555.5,252.5 Z"/></g>
<g><path style="opacity:0.012" fill="#33ccff" d="M 667.5,252.5 C 668.833,253.167 668.833,253.167 667.5,252.5 Z"/></g>
<g><path style="opacity:0.008" fill="#33ccff" d="M 28.5,254.5 C 27.8333,255.167 27.8333,255.167 28.5,254.5 Z"/></g>
<g><path style="opacity:0.004" fill="#32cbff" d="M 110.5,254.5 C 109.833,255.167 109.833,255.167 110.5,254.5 Z"/></g>
<g><path style="opacity:0.008" fill="#33ccff" d="M 131.5,254.5 C 132.833,255.167 132.833,255.167 131.5,254.5 Z"/></g>
<g><path style="opacity:0.004" fill="#32cbfe" d="M 160.5,254.5 C 160.103,255.525 159.437,255.692 158.5,255C 159.094,254.536 159.761,254.369 160.5,254.5 Z"/></g>
<g><path style="opacity:0.004" fill="#33ccfe" d="M 181.5,254.5 C 182.833,255.167 182.833,255.167 181.5,254.5 Z"/></g>
<g><path style="opacity:0.008" fill="#33ccfe" d="M 224.5,254.5 C 223.833,255.167 223.833,255.167 224.5,254.5 Z"/></g>
<g><path style="opacity:0.008" fill="#33ccff" d="M 282.5,254.5 C 281.833,255.167 281.833,255.167 282.5,254.5 Z"/></g>
<g><path style="opacity:0.004" fill="#33ccff" d="M 311.5,254.5 C 312.833,255.167 312.833,255.167 311.5,254.5 Z"/></g>
<g><path style="opacity:0.004" fill="#32cbfe" d="M 352.5,254.5 C 352.103,255.525 351.437,255.692 350.5,255C 351.094,254.536 351.761,254.369 352.5,254.5 Z"/></g>
<g><path style="opacity:0.004" fill="#32cbff" d="M 381.5,254.5 C 382.833,255.167 382.833,255.167 381.5,254.5 Z"/></g>
<g><path style="opacity:0.008" fill="#33ccff" d="M 419.5,254.5 C 418.833,255.167 418.833,255.167 419.5,254.5 Z"/></g>
<g><path style="opacity:0.004" fill="#32cbfe" d="M 464.5,254.5 C 465.833,255.167 465.833,255.167 464.5,254.5 Z"/></g>
<g><path style="opacity:0.004" fill="#33ccfe" d="M 486.5,254.5 C 485.833,255.167 485.833,255.167 486.5,254.5 Z"/></g>
<g><path style="opacity:0.004" fill="#33ccff" d="M 558.5,254.5 C 557.833,255.167 557.833,255.167 558.5,254.5 Z"/></g>
<g><path style="opacity:0.008" fill="#33ccfe" d="M 663.5,254.5 C 664.833,255.167 664.833,255.167 663.5,254.5 Z"/></g>
<g><path style="opacity:0.012" fill="#33ccfe" d="M 563.5,257.5 C 562.833,258.167 562.833,258.167 563.5,257.5 Z"/></g>
<g><path style="opacity:0.006" fill="#33ccff" d="M 657.5,257.5 C 658.239,257.369 658.906,257.536 659.5,258C 658.563,258.692 657.897,258.525 657.5,257.5 Z"/></g>
<g><path style="opacity:0.012" fill="#33ccff" d="M 570.5,260.5 C 570.103,261.525 569.437,261.692 568.5,261C 569.094,260.536 569.761,260.369 570.5,260.5 Z"/></g>
<g><path style="opacity:0.01" fill="#32cbfe" d="M 651.5,260.5 C 652.239,260.369 652.906,260.536 653.5,261C 652.563,261.692 651.897,261.525 651.5,260.5 Z"/></g>
<g><path style="opacity:0.004" fill="#32cbff" d="M 575.5,262.5 C 574.833,263.167 574.833,263.167 575.5,262.5 Z"/></g>
<g><path style="opacity:0.004" fill="#32cbfe" d="M 645.5,262.5 C 646.833,263.167 646.833,263.167 645.5,262.5 Z"/></g>
<g><path style="opacity:0.009" fill="#32cbff" d="M 585.5,265.5 C 584.749,266.573 583.749,266.74 582.5,266C 583.448,265.517 584.448,265.351 585.5,265.5 Z"/></g>
<g><path style="opacity:0.01" fill="#33ccff" d="M 635.5,266.5 C 635.897,265.475 636.563,265.308 637.5,266C 636.906,266.464 636.239,266.631 635.5,266.5 Z"/></g>
<g><path style="opacity:0.015" fill="#32cbfe" d="M 597.5,269.5 C 605.656,268.343 613.99,268.177 622.5,269C 614.173,269.5 605.84,269.666 597.5,269.5 Z"/></g>
</svg>
